SplineFontDB: 3.2
FontName: PCB1-Regular
FullName: PCB1-Regular
FamilyName: PCB1
Weight: Book
Copyright: Copyright (c) 2025, Fujix
Version: 002.000
ItalicAngle: 0
UnderlinePosition: -152
UnderlineWidth: 76
Ascent: 1240
Descent: 280
InvalidEm: 0
sfntRevision: 0x00020000
LayerCount: 2
Layer: 0 1 "+gMyXYgAA" 1
Layer: 1 1 "+Uk2XYgAA" 0
XUID: [1021 249 -198832299 26739]
StyleMap: 0x0000
FSType: 0
OS2Version: 4
OS2_WeightWidthSlopeOnly: 0
OS2_UseTypoMetrics: 1
CreationTime: 1764141469
ModificationTime: 1765524004
PfmFamily: 17
TTFWeight: 400
TTFWidth: 5
LineGap: 137
VLineGap: 0
Panose: 2 0 5 3 0 0 0 0 0 0
OS2TypoAscent: 1240
OS2TypoAOffset: 0
OS2TypoDescent: -280
OS2TypoDOffset: 0
OS2TypoLinegap: 137
OS2WinAscent: 1217
OS2WinAOffset: 0
OS2WinDescent: 281
OS2WinDOffset: 0
HheadAscent: 1217
HheadAOffset: 0
HheadDescent: -281
HheadDOffset: 0
OS2SubXSize: 988
OS2SubYSize: 1064
OS2SubXOff: 0
OS2SubYOff: 212
OS2SupXSize: 988
OS2SupYSize: 1064
OS2SupXOff: 0
OS2SupYOff: 729
OS2StrikeYSize: 75
OS2StrikeYPos: 393
OS2CapHeight: 1036
OS2XHeight: 815
OS2Vendor: 'PfEd'
OS2CodePages: 00000001.00000000
OS2UnicodeRanges: 80000083.00000000.00000000.00000000
MarkAttachClasses: 1
DEI: 91125
ShortTable: cvt  2
  50
  963
EndShort
ShortTable: maxp 16
  1
  0
  61
  87
  4
  0
  0
  2
  0
  1
  1
  0
  64
  46
  0
  0
EndShort
LangName: 1033 "" "" "" "PCB1 : PCB1-Regular : 12-12-2025" "" "Version 002.000"
GaspTable: 1 65535 2 0
Encoding: UnicodeBmp
UnicodeInterp: none
NameList: AGL For New Fonts
DisplaySize: -36
AntiAlias: 1
FitToEm: 0
WinInfo: 40 40 10
BeginChars: 65539 61

StartChar: .notdef
Encoding: 65536 -1 0
Width: 552
GlyphClass: 1
Flags: W
LayerCount: 2
Fore
SplineSet
50 0 m 1,0,-1
 50 1013 l 1,1,-1
 452 1013 l 1,2,-1
 452 0 l 1,3,-1
 50 0 l 1,0,-1
100 50 m 1,4,-1
 402 50 l 1,5,-1
 402 963 l 1,6,-1
 100 963 l 1,7,-1
 100 50 l 1,4,-1
EndSplineSet
EndChar

StartChar: quotedbl
Encoding: 34 34 4
Width: 828
GlyphClass: 1
Flags: W
LayerCount: 2
Fore
SplineSet
244 641 m 256,0,1
 212 641 212 641 190 663.5 c 128,-1,2
 168 686 168 686 168 717 c 2,3,-1
 167 974 l 2,4,5
 167 1006 167 1006 189 1028 c 128,-1,6
 211 1050 211 1050 242 1051 c 2,7,-1
 243 1051 l 2,8,9
 274 1051 274 1051 296.5 1028.5 c 128,-1,10
 319 1006 319 1006 319 975 c 2,11,-1
 320 718 l 2,12,13
 320 686 320 686 298 663.5 c 128,-1,14
 276 641 276 641 244 641 c 256,0,1
591 641 m 0,15,16
 560 641 560 641 537.5 663.5 c 128,-1,17
 515 686 515 686 515 717 c 2,18,-1
 514 974 l 2,19,20
 514 1006 514 1006 536 1028 c 128,-1,21
 558 1050 558 1050 590 1051 c 0,22,23
 621 1051 621 1051 643.5 1028.5 c 128,-1,24
 666 1006 666 1006 666 975 c 2,25,-1
 667 718 l 2,26,27
 667 686 667 686 645 663.5 c 128,-1,28
 623 641 623 641 591 641 c 0,15,16
EndSplineSet
EndChar

StartChar: numbersign
Encoding: 35 35 5
Width: 1092
GlyphClass: 1
Flags: W
LayerCount: 2
Fore
SplineSet
860 382 m 2,0,1
 891 382 891 382 913.5 359.5 c 128,-1,2
 936 337 936 337 936 305.5 c 128,-1,3
 936 274 936 274 913.5 252 c 128,-1,4
 891 230 891 230 860 230 c 2,5,-1
 804 230 l 1,6,-1
 804 117 l 2,7,8
 804 85 804 85 782 63 c 128,-1,9
 760 41 760 41 728.5 41 c 128,-1,10
 697 41 697 41 674.5 63 c 128,-1,11
 652 85 652 85 652 117 c 2,12,-1
 652 230 l 1,13,-1
 451 230 l 1,14,-1
 451 117 l 2,15,16
 451 85 451 85 429 63 c 128,-1,17
 407 41 407 41 375.5 41 c 128,-1,18
 344 41 344 41 322 63 c 128,-1,19
 300 85 300 85 300 117 c 2,20,-1
 300 230 l 1,21,-1
 233 230 l 2,22,23
 201 230 201 230 179 252 c 128,-1,24
 157 274 157 274 157 305.5 c 128,-1,25
 157 337 157 337 179 359.5 c 128,-1,26
 201 382 201 382 233 382 c 2,27,-1
 300 382 l 1,28,-1
 300 714 l 1,29,-1
 233 714 l 2,30,31
 201 714 201 714 179 736 c 128,-1,32
 157 758 157 758 157 789.5 c 128,-1,33
 157 821 157 821 179 843.5 c 128,-1,34
 201 866 201 866 233 866 c 2,35,-1
 300 866 l 1,36,-1
 300 963 l 2,37,38
 300 995 300 995 322 1017 c 128,-1,39
 344 1039 344 1039 375.5 1039 c 128,-1,40
 407 1039 407 1039 429 1017 c 128,-1,41
 451 995 451 995 451 963 c 2,42,-1
 451 866 l 1,43,-1
 652 866 l 1,44,-1
 652 963 l 2,45,46
 652 995 652 995 674.5 1017 c 128,-1,47
 697 1039 697 1039 728.5 1039 c 128,-1,48
 760 1039 760 1039 782 1017 c 128,-1,49
 804 995 804 995 804 963 c 2,50,-1
 804 866 l 1,51,-1
 860 866 l 2,52,53
 891 866 891 866 913.5 843.5 c 128,-1,54
 936 821 936 821 936 789.5 c 128,-1,55
 936 758 936 758 913.5 736 c 128,-1,56
 891 714 891 714 860 714 c 2,57,-1
 804 714 l 1,58,-1
 804 382 l 1,59,-1
 860 382 l 2,0,1
451 382 m 1,60,-1
 652 382 l 1,61,-1
 652 714 l 1,62,-1
 451 714 l 1,63,-1
 451 382 l 1,60,-1
EndSplineSet
EndChar

StartChar: ampersand
Encoding: 38 38 6
Width: 997
GlyphClass: 1
Flags: W
LayerCount: 2
Fore
SplineSet
838.5 41 m 128,-1,1
 807 41 807 41 785 63 c 2,2,-1
 667 181 l 1,3,4
 649 163 649 163 634 149 c 0,5,6
 532 41 532 41 371 41 c 0,7,8
 302 41 302 41 236 74 c 128,-1,9
 170 107 170 107 126 170.5 c 128,-1,10
 82 234 82 234 82 310 c 0,11,12
 82 458 82 458 264 582 c 1,13,14
 220 627 220 627 194.5 670.5 c 128,-1,15
 169 714 169 714 163 768 c 0,16,17
 158 817 158 817 175.5 867 c 128,-1,18
 193 917 193 917 229 957 c 0,19,20
 303 1039 303 1039 408 1039 c 0,21,22
 456 1039 456 1039 501.5 1022 c 128,-1,23
 547 1005 547 1005 584.5 973.5 c 128,-1,24
 622 942 622 942 645.5 891.5 c 128,-1,25
 669 841 669 841 669 780 c 0,26,27
 670 740 670 740 656 704.5 c 128,-1,28
 642 669 642 669 617 641 c 128,-1,29
 592 613 592 613 567.5 593 c 128,-1,30
 543 573 543 573 511 553 c 1,31,-1
 669 395 l 1,32,33
 714 439 714 439 740 463 c 0,34,35
 758 480 758 480 768 488.5 c 128,-1,36
 778 497 778 497 795 508 c 128,-1,37
 812 519 812 519 824.5 521 c 128,-1,38
 837 523 837 523 853 519 c 128,-1,39
 869 515 869 515 885 501 c 0,40,41
 906 482 906 482 909 453 c 128,-1,42
 912 424 912 424 890 394 c 0,43,44
 882 384 882 384 872 378 c 0,45,46
 851 359 851 359 776 287 c 1,47,-1
 893 170 l 2,48,49
 915 148 915 148 915 116.5 c 128,-1,50
 915 85 915 85 892.5 63 c 128,-1,0
 870 41 870 41 838.5 41 c 128,-1,1
376 473 m 1,51,52
 234 385 234 385 234 310 c 0,53,54
 234 260 234 260 279 226.5 c 128,-1,55
 324 193 324 193 371 193 c 0,56,57
 467 193 467 193 524 254 c 0,58,59
 527 256 527 256 527 256 c 2,60,61
 540 269 540 269 560 289 c 1,62,-1
 376 473 l 1,51,52
773 491 m 1024,63,-1
408 887 m 0,64,65
 370 887 370 887 342 856 c 0,66,67
 310 820 310 820 314 784 c 0,68,69
 317 756 317 756 335.5 730.5 c 128,-1,70
 354 705 354 705 399 663 c 1,71,72
 423 677 423 677 439.5 687.5 c 128,-1,73
 456 698 456 698 476.5 714 c 128,-1,74
 497 730 497 730 507.5 746.5 c 128,-1,75
 518 763 518 763 518 778 c 0,76,77
 517 809 517 809 506 831.5 c 128,-1,78
 495 854 495 854 477.5 865.5 c 128,-1,79
 460 877 460 877 442.5 882 c 128,-1,80
 425 887 425 887 408 887 c 0,64,65
EndSplineSet
EndChar

StartChar: quotesingle
Encoding: 39 39 7
Width: 768
GlyphClass: 1
Flags: W
LayerCount: 2
Fore
SplineSet
326 630 m 0,0,1
 314 630 314 630 303 633 c 0,2,3
 273 643 273 643 258.5 671 c 128,-1,4
 244 699 244 699 254 728 c 2,5,-1
 336 986 l 2,6,7
 345 1016 345 1016 373 1030.5 c 128,-1,8
 401 1045 401 1045 431 1035.5 c 128,-1,9
 461 1026 461 1026 475.5 998 c 128,-1,10
 490 970 490 970 480 940 c 2,11,-1
 399 683 l 2,12,13
 391 659 391 659 371 644.5 c 128,-1,14
 351 630 351 630 326 630 c 0,0,1
EndSplineSet
EndChar

StartChar: parenleft
Encoding: 40 40 8
Width: 572
GlyphClass: 1
Flags: W
LayerCount: 2
Fore
SplineSet
417 -127 m 0,0,1
 396 -127 396 -127 377 -116 c 0,2,3
 369 -111 369 -111 356.5 -102 c 128,-1,4
 344 -93 344 -93 313.5 -64 c 128,-1,5
 283 -35 283 -35 255 -1 c 128,-1,6
 227 33 227 33 193.5 88.5 c 128,-1,7
 160 144 160 144 136 206.5 c 128,-1,8
 112 269 112 269 96 355.5 c 128,-1,9
 80 442 80 442 80 536 c 0,10,11
 80 621 80 621 96 702.5 c 128,-1,12
 112 784 112 784 135 845.5 c 128,-1,13
 158 907 158 907 190.5 965 c 128,-1,14
 223 1023 223 1023 250 1059.5 c 128,-1,15
 277 1096 277 1096 307.5 1129 c 128,-1,16
 338 1162 338 1162 350 1173 c 128,-1,17
 362 1184 362 1184 370 1190 c 0,18,19
 394 1210 394 1210 425.5 1207 c 128,-1,20
 457 1204 457 1204 476.5 1179.5 c 128,-1,21
 496 1155 496 1155 493 1123.5 c 128,-1,22
 490 1092 490 1092 466 1073 c 0,23,24
 454 1063 454 1063 436.5 1046.5 c 128,-1,25
 419 1030 419 1030 380 978.5 c 128,-1,26
 341 927 341 927 310.5 869.5 c 128,-1,27
 280 812 280 812 256 722 c 128,-1,28
 232 632 232 632 232 536 c 0,29,30
 232 460 232 460 244.5 390 c 128,-1,31
 257 320 257 320 275 270 c 128,-1,32
 293 220 293 220 318.5 175.5 c 128,-1,33
 344 131 344 131 365 104 c 128,-1,34
 386 77 386 77 409.5 54 c 128,-1,35
 433 31 433 31 442.5 24 c 128,-1,36
 452 17 452 17 458 13 c 0,37,38
 485 -4 485 -4 491.5 -34.5 c 128,-1,39
 498 -65 498 -65 481 -92 c 0,40,41
 459 -127 459 -127 417 -127 c 0,0,1
EndSplineSet
EndChar

StartChar: parenright
Encoding: 41 41 9
Width: 573
GlyphClass: 1
Flags: W
LayerCount: 2
Fore
SplineSet
156 -121 m 0,0,1
 114 -121 114 -121 92 -85 c 0,2,3
 75 -58 75 -58 82 -27.5 c 128,-1,4
 89 3 89 3 116 20 c 0,5,6
 122 24 122 24 131.5 31 c 128,-1,7
 141 38 141 38 164 60.5 c 128,-1,8
 187 83 187 83 208.5 110 c 128,-1,9
 230 137 230 137 255 182 c 128,-1,10
 280 227 280 227 298.5 277 c 128,-1,11
 317 327 317 327 329.5 396.5 c 128,-1,12
 342 466 342 466 342 542 c 0,13,14
 342 638 342 638 317.5 728.5 c 128,-1,15
 293 819 293 819 263 876.5 c 128,-1,16
 233 934 233 934 193.5 985 c 128,-1,17
 154 1036 154 1036 136.5 1052.5 c 128,-1,18
 119 1069 119 1069 108 1079 c 0,19,20
 84 1099 84 1099 80.5 1130 c 128,-1,21
 77 1161 77 1161 97 1185.5 c 128,-1,22
 117 1210 117 1210 148 1213.5 c 128,-1,23
 179 1217 179 1217 204 1197 c 0,24,25
 212 1190 212 1190 224 1179.5 c 128,-1,26
 236 1169 236 1169 266 1136 c 128,-1,27
 296 1103 296 1103 323 1066 c 128,-1,28
 350 1029 350 1029 382.5 971.5 c 128,-1,29
 415 914 415 914 438.5 852.5 c 128,-1,30
 462 791 462 791 477.5 709 c 128,-1,31
 493 627 493 627 493 542 c 0,32,33
 493 448 493 448 477 361.5 c 128,-1,34
 461 275 461 275 437 213 c 128,-1,35
 413 151 413 151 380 95 c 128,-1,36
 347 39 347 39 318.5 5 c 128,-1,37
 290 -29 290 -29 260 -57.5 c 128,-1,38
 230 -86 230 -86 217 -95 c 128,-1,39
 204 -104 204 -104 196 -109 c 0,40,41
 178 -121 178 -121 156 -121 c 0,0,1
EndSplineSet
EndChar

StartChar: plus
Encoding: 43 43 10
Width: 1284
GlyphClass: 1
Flags: W
LayerCount: 2
Fore
SplineSet
1050 616 m 2,0,1
 1081 616 1081 616 1103.5 593.5 c 128,-1,2
 1126 571 1126 571 1126 539.5 c 128,-1,3
 1126 508 1126 508 1103.5 486 c 128,-1,4
 1081 464 1081 464 1050 464 c 2,5,-1
 720 464 l 1,6,-1
 720 134 l 2,7,8
 720 103 720 103 698 80.5 c 128,-1,9
 676 58 676 58 644.5 58 c 128,-1,10
 613 58 613 58 590.5 80.5 c 128,-1,11
 568 103 568 103 568 134 c 2,12,-1
 568 464 l 1,13,-1
 238 464 l 2,14,15
 207 464 207 464 184.5 486 c 128,-1,16
 162 508 162 508 162 539.5 c 128,-1,17
 162 571 162 571 184.5 593.5 c 128,-1,18
 207 616 207 616 238 616 c 2,19,-1
 568 616 l 1,20,-1
 568 946 l 2,21,22
 568 977 568 977 590 999.5 c 128,-1,23
 612 1022 612 1022 644 1022 c 128,-1,24
 676 1022 676 1022 698 999.5 c 128,-1,25
 720 977 720 977 720 946 c 2,26,-1
 720 616 l 1,27,-1
 1050 616 l 2,0,1
EndSplineSet
EndChar

StartChar: comma
Encoding: 44 44 11
Width: 514
GlyphClass: 1
Flags: W
LayerCount: 2
Fore
SplineSet
236 -116 m 0,0,1
 224 -116 224 -116 213 -112 c 0,2,3
 183 -103 183 -103 168.5 -75 c 128,-1,4
 154 -47 154 -47 164 -17 c 2,5,-1
 204 112 l 2,6,7
 214 142 214 142 242 156.5 c 128,-1,8
 270 171 270 171 300 161.5 c 128,-1,9
 330 152 330 152 344.5 124 c 128,-1,10
 359 96 359 96 349 66 c 2,11,-1
 308 -63 l 2,12,13
 301 -87 301 -87 280.5 -101.5 c 128,-1,14
 260 -116 260 -116 236 -116 c 0,0,1
EndSplineSet
EndChar

StartChar: hyphen
Encoding: 45 45 12
Width: 1282
GlyphClass: 1
Flags: W
LayerCount: 2
Fore
SplineSet
1047 464 m 2,0,-1
 236 464 l 2,1,2
 204 464 204 464 181.5 486 c 128,-1,3
 159 508 159 508 159 540 c 128,-1,4
 159 572 159 572 181.5 594 c 128,-1,5
 204 616 204 616 236 616 c 2,6,-1
 1047 616 l 2,7,8
 1078 616 1078 616 1100.5 593.5 c 128,-1,9
 1123 571 1123 571 1123 539.5 c 128,-1,10
 1123 508 1123 508 1100.5 486 c 128,-1,11
 1078 464 1078 464 1047 464 c 2,0,-1
EndSplineSet
EndChar

StartChar: period
Encoding: 46 46 13
Width: 474
GlyphClass: 1
Flags: W
LayerCount: 2
Fore
SplineSet
135 142.099609375 m 128,-1,1
 135 184.391037779 135 184.391037779 164.904381194 214.295616546 c 128,-1,2
 194.808762389 244.200195312 194.808762389 244.200195312 237.099609375 244.200195312 c 128,-1,3
 279.391113281 244.200195312 279.391113281 244.200195312 309.295654297 214.295654297 c 128,-1,4
 339.200195312 184.391113281 339.200195312 184.391113281 339.200195312 142.099609375 c 128,-1,5
 339.200195312 99.8087623887 339.200195312 99.8087623887 309.295616546 69.9043811943 c 128,-1,6
 279.391037779 40 279.391037779 40 237.099609375 40 c 128,-1,7
 194.808837891 40 194.808837891 40 164.904418945 69.9044189453 c 128,-1,0
 135 99.8088378906 135 99.8088378906 135 142.099609375 c 128,-1,1
EndSplineSet
EndChar

StartChar: slash
Encoding: 47 47 14
Width: 762
GlyphClass: 1
Flags: W
LayerCount: 2
Fore
SplineSet
228 83 m 0,0,1
 215 83 215 83 202 88 c 0,2,3
 176 99 176 99 164.5 125.5 c 128,-1,4
 153 152 153 152 163 179 c 2,5,-1
 468 952 l 2,6,7
 479 979 479 979 505.5 990.5 c 128,-1,8
 532 1002 532 1002 559 991.5 c 128,-1,9
 586 981 586 981 597.5 954.5 c 128,-1,10
 609 928 609 928 598 901 c 2,11,-1
 293 128 l 2,12,13
 285 107 285 107 267 95 c 128,-1,14
 249 83 249 83 228 83 c 0,0,1
EndSplineSet
EndChar

StartChar: zero
Encoding: 48 48 15
Width: 1016
GlyphClass: 1
Flags: W
LayerCount: 2
Fore
SplineSet
488 39 m 0,0,1
 480 39 480 39 477 40 c 0,2,3
 404 41 404 41 340 69 c 128,-1,4
 276 97 276 97 229.5 144 c 128,-1,5
 183 191 183 191 148.5 251.5 c 128,-1,6
 114 312 114 312 97 380.5 c 128,-1,7
 80 449 80 449 80 518 c 0,8,9
 80 756 80 756 197.5 898.5 c 128,-1,10
 315 1041 315 1041 511 1041 c 0,11,12
 706 1041 706 1041 820.5 904 c 128,-1,13
 935 767 935 767 935 541 c 0,14,15
 935 425 935 425 897.5 326.5 c 128,-1,16
 860 228 860 228 790 159 c 0,17,18
 668 39 668 39 488 39 c 0,0,1
511 889 m 0,19,20
 458 889 458 889 414.5 872.5 c 128,-1,21
 371 856 371 856 342.5 831 c 128,-1,22
 314 806 314 806 292.5 770 c 128,-1,23
 271 734 271 734 260 700.5 c 128,-1,24
 249 667 249 667 242 629 c 128,-1,25
 235 591 235 591 233.5 566.5 c 128,-1,26
 232 542 232 542 232 518 c 0,27,28
 232 439 232 439 261 366 c 128,-1,29
 290 293 290 293 348.5 243 c 128,-1,30
 407 193 407 193 480 191 c 0,31,32
 602 188 602 188 684 268 c 0,33,34
 732 315 732 315 757.5 385.5 c 128,-1,35
 783 456 783 456 783 541 c 0,36,37
 783 705 783 705 711 797 c 128,-1,38
 639 889 639 889 511 889 c 0,19,20
EndSplineSet
EndChar

StartChar: one
Encoding: 49 49 16
Width: 999
GlyphClass: 1
Flags: W
LayerCount: 2
Fore
SplineSet
498 40 m 128,-1,1
 467 40 467 40 444.5 62 c 128,-1,2
 422 84 422 84 422 116 c 2,3,-1
 422 964 l 2,4,5
 422 996 422 996 444.5 1018 c 128,-1,6
 467 1040 467 1040 498 1040 c 128,-1,7
 529 1040 529 1040 551.5 1018 c 128,-1,8
 574 996 574 996 574 964 c 2,9,-1
 574 116 l 2,10,11
 574 84 574 84 551.5 62 c 128,-1,0
 529 40 529 40 498 40 c 128,-1,1
EndSplineSet
EndChar

StartChar: two
Encoding: 50 50 17
Width: 927
GlyphClass: 1
Flags: W
LayerCount: 2
Fore
SplineSet
771 40 m 2,0,-1
 156 40 l 2,1,2
 124 40 124 40 101.5 63.5 c 128,-1,3
 79 87 79 87 80 119 c 0,4,5
 81 131 81 131 83.5 147.5 c 128,-1,6
 86 164 86 164 100 203 c 128,-1,7
 114 242 114 242 136.5 279.5 c 128,-1,8
 159 317 159 317 205.5 366.5 c 128,-1,9
 252 416 252 416 314 459 c 0,10,11
 374 500 374 500 480 562 c 0,12,13
 596 630 596 630 635 666.5 c 128,-1,14
 674 703 674 703 675 754 c 0,15,16
 675 808 675 808 640 844 c 0,17,18
 591 893 591 893 484 894 c 2,19,-1
 482 894 l 2,20,21
 435 894 435 894 389.5 880.5 c 128,-1,22
 344 867 344 867 314.5 850.5 c 128,-1,23
 285 834 285 834 258.5 812.5 c 128,-1,24
 232 791 232 791 223.5 781.5 c 128,-1,25
 215 772 215 772 210 766 c 0,26,27
 190 741 190 741 159 737.5 c 128,-1,28
 128 734 128 734 103.5 753.5 c 128,-1,29
 79 773 79 773 75 804 c 128,-1,30
 71 835 71 835 90 860 c 0,31,32
 97 869 97 869 109.5 882.5 c 128,-1,33
 122 896 122 896 160 927.5 c 128,-1,34
 198 959 198 959 240.5 983 c 128,-1,35
 283 1007 283 1007 348.5 1026.5 c 128,-1,36
 414 1046 414 1046 482 1046 c 2,37,-1
 485 1046 l 2,38,39
 655 1045 655 1045 748 951 c 0,40,41
 827 870 827 870 826 753 c 0,42,43
 826 718 826 718 817.5 687 c 128,-1,44
 809 656 809 656 798 632 c 128,-1,45
 787 608 787 608 764 583 c 128,-1,46
 741 558 741 558 723.5 541.5 c 128,-1,47
 706 525 706 525 672 502 c 128,-1,48
 638 479 638 479 618 467 c 128,-1,49
 598 455 598 455 557 431 c 0,50,51
 456 372 456 372 400 334 c 0,52,53
 306 269 306 269 261 192 c 1,54,-1
 771 192 l 2,55,56
 803 192 803 192 825 170 c 128,-1,57
 847 148 847 148 847 116.5 c 128,-1,58
 847 85 847 85 825 62.5 c 128,-1,59
 803 40 803 40 771 40 c 2,0,-1
EndSplineSet
EndChar

StartChar: three
Encoding: 51 51 18
Width: 966
GlyphClass: 1
Flags: W
LayerCount: 2
Fore
SplineSet
462 43 m 0,0,1
 394 43 394 43 332 56.5 c 128,-1,2
 270 70 270 70 231.5 87 c 128,-1,3
 193 104 193 104 159.5 126 c 128,-1,4
 126 148 126 148 115 158 c 128,-1,5
 104 168 104 168 98 174 c 0,6,7
 77 197 77 197 78.5 228.5 c 128,-1,8
 80 260 80 260 103 281.5 c 128,-1,9
 126 303 126 303 157.5 301.5 c 128,-1,10
 189 300 189 300 211 277 c 0,11,12
 215 272 215 272 222.5 265.5 c 128,-1,13
 230 259 230 259 256 244 c 128,-1,14
 282 229 282 229 311.5 218 c 128,-1,15
 341 207 341 207 390 200 c 128,-1,16
 439 193 439 193 493 196 c 0,17,18
 522 197 522 197 552.5 203.5 c 128,-1,19
 583 210 583 210 616.5 223.5 c 128,-1,20
 650 237 650 237 675.5 256 c 128,-1,21
 701 275 701 275 718 305.5 c 128,-1,22
 735 336 735 336 735 373 c 0,23,24
 735 402 735 402 723.5 425 c 128,-1,25
 712 448 712 448 697 461 c 128,-1,26
 682 474 682 474 664 483 c 128,-1,27
 646 492 646 492 637.5 494 c 128,-1,28
 629 496 629 496 625 497 c 0,29,30
 589 501 589 501 511 499 c 0,31,32
 508 499 508 499 508 499 c 2,33,34
 476 498 476 498 453 519.5 c 128,-1,35
 430 541 430 541 429.5 572.5 c 128,-1,36
 429 604 429 604 450.5 627 c 128,-1,37
 472 650 472 650 503 651 c 0,38,39
 506 651 506 651 508 651 c 0,40,41
 580 653 580 653 627 654 c 0,42,43
 653 654 653 654 682.5 687.5 c 128,-1,44
 712 721 712 721 713 767 c 0,45,46
 713 806 713 806 676 843 c 0,47,48
 622 898 622 898 516 898 c 0,49,50
 470 898 470 898 429.5 891 c 128,-1,51
 389 884 389 884 365 875 c 128,-1,52
 341 866 341 866 321 854.5 c 128,-1,53
 301 843 301 843 295 838 c 128,-1,54
 289 833 289 833 286 830 c 0,55,56
 266 806 266 806 234.5 804 c 128,-1,57
 203 802 203 802 179.5 822.5 c 128,-1,58
 156 843 156 843 154 875 c 128,-1,59
 152 907 152 907 172 931 c 0,60,61
 179 938 179 938 189.5 948 c 128,-1,62
 200 958 200 958 230.5 977.5 c 128,-1,63
 261 997 261 997 297 1012 c 128,-1,64
 333 1027 333 1027 391.5 1038.5 c 128,-1,65
 450 1050 450 1050 516 1050 c 0,66,67
 686 1050 686 1050 785 950 c 0,68,69
 823 911 823 911 844.5 861.5 c 128,-1,70
 866 812 866 812 865 764 c 0,71,72
 863 661 863 661 790 581 c 1,73,74
 887 499 887 499 887 373 c 0,75,76
 887 311 887 311 864.5 258.5 c 128,-1,77
 842 206 842 206 804.5 168.5 c 128,-1,78
 767 131 767 131 717 103.5 c 128,-1,79
 667 76 667 76 612.5 61.5 c 128,-1,80
 558 47 558 47 501 44 c 0,81,82
 483 43 483 43 462 43 c 0,0,1
EndSplineSet
EndChar

StartChar: four
Encoding: 52 52 19
Width: 1000
GlyphClass: 1
Flags: W
LayerCount: 2
Fore
SplineSet
697 40 m 0,0,1
 666 40 666 40 643.5 62.5 c 128,-1,2
 621 85 621 85 621 116 c 2,3,-1
 622 248 l 1,4,-1
 156 250 l 2,5,6
 134 250 134 250 115 262 c 128,-1,7
 96 274 96 274 87 294 c 128,-1,8
 78 314 78 314 81 336 c 128,-1,9
 84 358 84 358 98 375 c 2,10,-1
 642 1019 l 2,11,12
 657 1037 657 1037 680.5 1043.5 c 128,-1,13
 704 1050 704 1050 726.5 1041.5 c 128,-1,14
 749 1033 749 1033 762.5 1013.5 c 128,-1,15
 776 994 776 994 776 970 c 2,16,-1
 774 400 l 1,17,-1
 842 400 l 2,18,19
 874 400 874 400 896 377.5 c 128,-1,20
 918 355 918 355 918 323.5 c 128,-1,21
 918 292 918 292 895.5 270 c 128,-1,22
 873 248 873 248 842 248 c 2,23,-1
 774 248 l 1,24,-1
 773 116 l 2,25,26
 773 84 773 84 751 62 c 128,-1,27
 729 40 729 40 697 40 c 0,0,1
319 401 m 1,28,-1
 622 400 l 1,29,-1
 623 762 l 1,30,-1
 319 401 l 1,28,-1
EndSplineSet
EndChar

StartChar: five
Encoding: 53 53 20
Width: 986
GlyphClass: 1
Flags: W
LayerCount: 2
Fore
SplineSet
436 39 m 2,0,1
 362 39 362 39 283.5 53 c 128,-1,2
 205 67 205 67 176.5 76 c 128,-1,3
 148 85 148 85 129 92 c 0,4,5
 99 103 99 103 86.5 132 c 128,-1,6
 74 161 74 161 85 190 c 128,-1,7
 96 219 96 219 125 232 c 128,-1,8
 154 245 154 245 183 234 c 0,9,10
 196 229 196 229 214.5 223.5 c 128,-1,11
 233 218 233 218 291 206.5 c 128,-1,12
 349 195 349 195 403 191.5 c 128,-1,13
 457 188 457 188 530 198.5 c 128,-1,14
 603 209 603 209 662 238 c 0,15,16
 721 266 721 266 740.5 314.5 c 128,-1,17
 760 363 760 363 749 412 c 0,18,19
 736 470 736 470 685 514 c 128,-1,20
 634 558 634 558 548 558 c 2,21,-1
 546 558 l 2,22,23
 494 558 494 558 442.5 550.5 c 128,-1,24
 391 543 391 543 356 534 c 128,-1,25
 321 525 321 525 289 513.5 c 128,-1,26
 257 502 257 502 245.5 497 c 128,-1,27
 234 492 234 492 230 490 c 0,28,29
 192 469 192 469 155 491.5 c 128,-1,30
 118 514 118 514 118 557 c 2,31,-1
 122 963 l 2,32,33
 123 994 123 994 145 1016 c 128,-1,34
 167 1038 167 1038 198 1038 c 2,35,-1
 760 1040 l 2,36,37
 791 1040 791 1040 813.5 1018 c 128,-1,38
 836 996 836 996 836 964.5 c 128,-1,39
 836 933 836 933 813.5 911 c 128,-1,40
 791 889 791 889 760 889 c 2,41,-1
 274 887 l 1,42,-1
 271 668 l 1,43,44
 406 710 406 710 546 710 c 2,45,-1
 549 710 l 2,46,47
 621 709 621 709 683 686.5 c 128,-1,48
 745 664 745 664 787.5 626 c 128,-1,49
 830 588 830 588 858 542 c 128,-1,50
 886 496 886 496 898 445 c 0,51,52
 921 338 921 338 874.5 243 c 128,-1,53
 828 148 828 148 728 101 c 0,54,55
 599 39 599 39 437 39 c 2,56,-1
 436 39 l 2,0,1
EndSplineSet
EndChar

StartChar: six
Encoding: 54 54 21
Width: 997
GlyphClass: 1
Flags: W
LayerCount: 2
Fore
SplineSet
526 41 m 1,0,1
 310 41 310 41 200 151 c 0,2,3
 133 218 133 218 104 326 c 0,4,5
 102 331 102 331 102 335 c 0,6,7
 79 423 79 423 80 540 c 0,8,9
 81 620 81 620 97.5 688.5 c 128,-1,10
 114 757 114 757 141 806.5 c 128,-1,11
 168 856 168 856 205 896 c 128,-1,12
 242 936 242 936 282 961.5 c 128,-1,13
 322 987 322 987 366 1004.5 c 128,-1,14
 410 1022 410 1022 449.5 1030 c 128,-1,15
 489 1038 489 1038 526 1039 c 0,16,17
 585 1041 585 1041 639.5 1031 c 128,-1,18
 694 1021 694 1021 729 1007.5 c 128,-1,19
 764 994 764 994 794 976 c 128,-1,20
 824 958 824 958 835.5 948.5 c 128,-1,21
 847 939 847 939 854 932 c 0,22,23
 876 909 876 909 875.5 877.5 c 128,-1,24
 875 846 875 846 852 824 c 0,25,26
 830 803 830 803 799 803 c 128,-1,27
 768 803 768 803 746 825 c 0,28,29
 742 829 742 829 735.5 834 c 128,-1,30
 729 839 729 839 709.5 850 c 128,-1,31
 690 861 690 861 667 869 c 128,-1,32
 644 877 644 877 607.5 882.5 c 128,-1,33
 571 888 571 888 530 887 c 0,34,35
 516 887 516 887 499.5 885 c 128,-1,36
 483 883 483 883 453.5 875 c 128,-1,37
 424 867 424 867 397.5 854 c 128,-1,38
 371 841 371 841 341.5 816.5 c 128,-1,39
 312 792 312 792 290 759.5 c 128,-1,40
 268 727 268 727 252 677 c 128,-1,41
 236 627 236 627 233 566 c 1,42,43
 357 662 357 662 526 657 c 0,44,45
 696 653 696 653 806.5 567.5 c 128,-1,46
 917 482 917 482 917 356 c 0,47,48
 917 309 917 309 904.5 265 c 128,-1,49
 892 221 892 221 862.5 179.5 c 128,-1,50
 833 138 833 138 789 107.5 c 128,-1,51
 745 77 745 77 677.5 58.5 c 128,-1,52
 610 40 610 40 526 40 c 1,53,-1
 526 41 l 1,0,1
253 355 m 1,54,55
 272 294 272 294 308 258 c 0,56,57
 373 192 373 192 526 192 c 0,58,59
 560 192 560 192 591 196 c 128,-1,60
 622 200 622 200 655 211 c 128,-1,61
 688 222 688 222 711.5 240 c 128,-1,62
 735 258 735 258 750 288 c 128,-1,63
 765 318 765 318 765 357 c 0,64,65
 765 417 765 417 695.5 460 c 128,-1,66
 626 503 626 503 522 506 c 0,67,68
 470 507 470 507 425 495 c 128,-1,69
 380 483 380 483 351.5 465 c 128,-1,70
 323 447 323 447 300.5 424 c 128,-1,71
 278 401 278 401 268 384.5 c 128,-1,72
 258 368 258 368 254 355 c 1,73,-1
 253 355 l 1,54,55
EndSplineSet
EndChar

StartChar: seven
Encoding: 55 55 22
Width: 1059
GlyphClass: 1
Flags: W
LayerCount: 2
Fore
SplineSet
477 41 m 0,0,1
 468 41 468 41 459 43 c 0,2,3
 429 51 429 51 412.5 77 c 128,-1,4
 396 103 396 103 404 134 c 0,5,6
 425 224 425 224 589 562 c 0,7,8
 683 755 683 755 764 892 c 1,9,-1
 156 892 l 2,10,11
 124 892 124 892 102 914.5 c 128,-1,12
 80 937 80 937 80 968.5 c 128,-1,13
 80 1000 80 1000 102 1022 c 128,-1,14
 124 1044 124 1044 156 1044 c 2,15,-1
 904 1044 l 2,16,17
 926 1044 926 1044 944.5 1032.5 c 128,-1,18
 963 1021 963 1021 972.5 1001.5 c 128,-1,19
 982 982 982 982 979.5 960 c 128,-1,20
 977 938 977 938 963 921 c 0,21,22
 954 909 954 909 935.5 881.5 c 128,-1,23
 917 854 917 854 855.5 745 c 128,-1,24
 794 636 794 636 726 496 c 0,25,26
 659 358 659 358 615 257.5 c 128,-1,27
 571 157 571 157 562 132 c 128,-1,28
 553 107 553 107 551 98 c 0,29,30
 544 72 544 72 523.5 56.5 c 128,-1,31
 503 41 503 41 477 41 c 0,0,1
EndSplineSet
EndChar

StartChar: eight
Encoding: 56 56 23
Width: 971
GlyphClass: 1
Flags: W
LayerCount: 2
Fore
SplineSet
756 586 m 1,0,1
 821 542 821 542 856.5 479.5 c 128,-1,2
 892 417 892 417 892 343 c 0,3,4
 892 230 892 230 813 151 c 0,5,6
 703 41 703 41 486 41 c 0,7,8
 272 41 272 41 160 159 c 0,9,10
 74 250 74 250 80 371 c 0,11,12
 84 437 84 437 119.5 494 c 128,-1,13
 155 551 155 551 216 592 c 1,14,15
 197 606 197 606 182 622 c 0,16,17
 111 697 111 697 117 795 c 0,18,19
 123 901 123 901 226 973 c 128,-1,20
 329 1045 329 1045 473 1045 c 2,21,-1
 476 1045 l 2,22,23
 643 1044 643 1044 749 967.5 c 128,-1,24
 855 891 855 891 855 772 c 0,25,26
 855 680 855 680 789 614 c 0,27,28
 776 600 776 600 756 586 c 1,0,1
473 894 m 2,29,30
 387 894 387 894 329 859 c 128,-1,31
 271 824 271 824 269 786 c 0,32,33
 267 754 267 754 293 726 c 0,34,35
 349 667 349 667 486 667 c 0,36,37
 628 667 628 667 682 721 c 0,38,39
 703 743 703 743 703 771 c 0,40,41
 703 809 703 809 668.5 837.5 c 128,-1,42
 634 866 634 866 583 879.5 c 128,-1,43
 532 893 532 893 475 894 c 2,44,-1
 473 894 l 2,29,30
705 258 m 0,45,46
 740 293 740 293 740 343 c 0,47,48
 740 396 740 396 700.5 436 c 128,-1,49
 661 476 661 476 601.5 495.5 c 128,-1,50
 542 515 542 515 474 515 c 2,51,-1
 472 515 l 2,52,53
 372 515 372 515 303.5 468.5 c 128,-1,54
 235 422 235 422 232 363 c 0,55,56
 229 307 229 307 270 264 c 0,57,58
 337 193 337 193 486 193 c 0,59,60
 640 193 640 193 705 258 c 0,45,46
EndSplineSet
EndChar

StartChar: nine
Encoding: 57 57 24
Width: 997
GlyphClass: 1
Flags: W
LayerCount: 2
Fore
SplineSet
465 40 m 2,0,1
 407 40 407 40 353.5 50.5 c 128,-1,2
 300 61 300 61 266.5 74 c 128,-1,3
 233 87 233 87 203 104.5 c 128,-1,4
 173 122 173 122 162.5 130.5 c 128,-1,5
 152 139 152 139 145 146 c 0,6,7
 122 168 122 168 121.5 199.5 c 128,-1,8
 121 231 121 231 144 254 c 0,9,10
 165 276 165 276 196.5 276.5 c 128,-1,11
 228 277 228 277 250 255 c 0,12,13
 254 252 254 252 260.5 247 c 128,-1,14
 267 242 267 242 286.5 231.5 c 128,-1,15
 306 221 306 221 329 213 c 128,-1,16
 352 205 352 205 388.5 198.5 c 128,-1,17
 425 192 425 192 465 192 c 2,18,-1
 469 192 l 2,19,20
 501 192 501 192 527.5 195 c 128,-1,21
 554 198 554 198 584 207 c 128,-1,22
 614 216 614 216 638.5 230 c 128,-1,23
 663 244 663 244 686.5 269 c 128,-1,24
 710 294 710 294 726 327 c 128,-1,25
 742 360 742 360 753 407.5 c 128,-1,26
 764 455 764 455 766 514 c 1,27,28
 641 418 641 418 472 422 c 0,29,30
 302 427 302 427 191 512.5 c 128,-1,31
 80 598 80 598 80 724 c 0,32,33
 80 771 80 771 92.5 815 c 128,-1,34
 105 859 105 859 135 900.5 c 128,-1,35
 165 942 165 942 209 972.5 c 128,-1,36
 253 1003 253 1003 320.5 1021.5 c 128,-1,37
 388 1040 388 1040 472 1040 c 0,38,39
 689 1040 689 1040 798 930 c 0,40,41
 865 862 865 862 895 753 c 0,42,43
 896 750 896 750 896 746 c 0,44,45
 919 658 919 658 918 539 c 0,46,47
 918 454 918 454 903 383 c 128,-1,48
 888 312 888 312 863.5 261.5 c 128,-1,49
 839 211 839 211 804 171.5 c 128,-1,50
 769 132 769 132 731 108 c 128,-1,51
 693 84 693 84 647 68.5 c 128,-1,52
 601 53 601 53 559 46.5 c 128,-1,53
 517 40 517 40 470 40 c 2,54,-1
 465 40 l 2,0,1
472 888 m 0,55,56
 436 888 436 888 404.5 884 c 128,-1,57
 373 880 373 880 340.5 869 c 128,-1,58
 308 858 308 858 284.5 840.5 c 128,-1,59
 261 823 261 823 246.5 793 c 128,-1,60
 232 763 232 763 232 724 c 0,61,62
 232 663 232 663 302 620 c 128,-1,63
 372 577 372 577 476 574 c 0,64,65
 484 574 484 574 487 574 c 0,66,67
 537 574 537 574 580 587 c 128,-1,68
 623 600 623 600 650.5 618 c 128,-1,69
 678 636 678 636 699.5 658.5 c 128,-1,70
 721 681 721 681 731 697 c 128,-1,71
 741 713 741 713 745 725 c 1,72,73
 726 786 726 786 690 822 c 0,74,75
 625 888 625 888 472 888 c 0,55,56
EndSplineSet
EndChar

StartChar: colon
Encoding: 58 58 25
Width: 789
GlyphClass: 1
Flags: W
LayerCount: 2
Fore
SplineSet
320 194.5 m 128,-1,1
 320 226 320 226 342 248 c 128,-1,2
 364 270 364 270 395.5 270 c 128,-1,3
 427 270 427 270 449.5 248 c 128,-1,4
 472 226 472 226 472 194.5 c 128,-1,5
 472 163 472 163 449.5 141 c 128,-1,6
 427 119 427 119 395.5 119 c 128,-1,7
 364 119 364 119 342 141 c 128,-1,0
 320 163 320 163 320 194.5 c 128,-1,1
320 886.5 m 128,-1,9
 320 918 320 918 342 940 c 128,-1,10
 364 962 364 962 395.5 962 c 128,-1,11
 427 962 427 962 449.5 940 c 128,-1,12
 472 918 472 918 472 886.5 c 128,-1,13
 472 855 472 855 449.5 833 c 128,-1,14
 427 811 427 811 395.5 811 c 128,-1,15
 364 811 364 811 342 833 c 128,-1,8
 320 855 320 855 320 886.5 c 128,-1,9
EndSplineSet
EndChar

StartChar: semicolon
Encoding: 59 59 26
Width: 833
GlyphClass: 1
Flags: W
LayerCount: 2
Fore
SplineSet
361 886.5 m 128,-1,1
 361 918 361 918 383 940 c 128,-1,2
 405 962 405 962 436.5 962 c 128,-1,3
 468 962 468 962 490.5 940 c 128,-1,4
 513 918 513 918 513 886.5 c 128,-1,5
 513 855 513 855 490.5 833 c 128,-1,6
 468 811 468 811 436.5 811 c 128,-1,7
 405 811 405 811 383 833 c 128,-1,0
 361 855 361 855 361 886.5 c 128,-1,1
396 -10 m 0,8,9
 384 -10 384 -10 373 -6 c 0,10,11
 343 3 343 3 328.5 31 c 128,-1,12
 314 59 314 59 324 89 c 2,13,-1
 364 218 l 2,14,15
 374 248 374 248 402 262.5 c 128,-1,16
 430 277 430 277 460 267 c 128,-1,17
 490 257 490 257 504.5 229.5 c 128,-1,18
 519 202 519 202 509 172 c 2,19,-1
 468 43 l 2,20,21
 461 19 461 19 440.5 4.5 c 128,-1,22
 420 -10 420 -10 396 -10 c 0,8,9
EndSplineSet
EndChar

StartChar: equal
Encoding: 61 61 27
Width: 1280
GlyphClass: 1
Flags: W
LayerCount: 2
Fore
SplineSet
1046 289 m 2,0,-1
 234 289 l 2,1,2
 203 289 203 289 180.5 311.5 c 128,-1,3
 158 334 158 334 158 365.5 c 128,-1,4
 158 397 158 397 180.5 419 c 128,-1,5
 203 441 203 441 234 441 c 2,6,-1
 1046 441 l 2,7,8
 1077 441 1077 441 1099.5 419 c 128,-1,9
 1122 397 1122 397 1122 365.5 c 128,-1,10
 1122 334 1122 334 1099.5 311.5 c 128,-1,11
 1077 289 1077 289 1046 289 c 2,0,-1
1046 642 m 2,12,-1
 234 642 l 2,13,14
 203 642 203 642 180.5 664.5 c 128,-1,15
 158 687 158 687 158 718.5 c 128,-1,16
 158 750 158 750 180.5 772.5 c 128,-1,17
 203 795 203 795 234 795 c 2,18,-1
 1046 795 l 2,19,20
 1077 795 1077 795 1099.5 772.5 c 128,-1,21
 1122 750 1122 750 1122 718.5 c 128,-1,22
 1122 687 1122 687 1099.5 664.5 c 128,-1,23
 1077 642 1077 642 1046 642 c 2,12,-1
EndSplineSet
EndChar

StartChar: A
Encoding: 65 65 28
Width: 1002
GlyphClass: 1
Flags: W
LayerCount: 2
Fore
SplineSet
918 139 m 2,0,1
 929 109 929 109 916.5 80.5 c 128,-1,2
 904 52 904 52 875 40 c 0,3,4
 861 35 861 35 847 35 c 0,5,6
 824 35 824 35 804.5 48 c 128,-1,7
 785 61 785 61 776 83 c 2,8,-1
 718 230 l 1,9,-1
 286 230 l 1,10,-1
 226 86 l 2,11,12
 213 57 213 57 184 45.5 c 128,-1,13
 155 34 155 34 126 46 c 128,-1,14
 97 58 97 58 85 87.5 c 128,-1,15
 73 117 73 117 86 146 c 2,16,-1
 443 987 l 2,17,18
 452 1008 452 1008 471 1020.5 c 128,-1,19
 490 1033 490 1033 513 1033 c 2,20,-1
 514 1033 l 2,21,22
 537 1033 537 1033 556 1020 c 128,-1,23
 575 1007 575 1007 584 985 c 2,24,-1
 918 139 l 2,0,1
351 382 m 1,25,-1
 659 382 l 1,26,-1
 511 757 l 1,27,-1
 351 382 l 1,25,-1
EndSplineSet
EndChar

StartChar: B
Encoding: 66 66 29
Width: 1012
GlyphClass: 1
Flags: W
LayerCount: 2
Fore
SplineSet
623 40 m 2,0,-1
 156 40 l 2,1,2
 124 40 124 40 102 62.5 c 128,-1,3
 80 85 80 85 80 116 c 2,4,-1
 80 964 l 2,5,6
 80 995 80 995 102 1017.5 c 128,-1,7
 124 1040 124 1040 156 1040 c 2,8,-1
 569 1040 l 2,9,10
 699 1040 699 1040 785.5 960 c 128,-1,11
 872 880 872 880 872 760 c 0,12,13
 872 647 872 647 805 571 c 1,14,15
 864 532 864 532 898 472.5 c 128,-1,16
 932 413 932 413 932 337 c 0,17,18
 932 200 932 200 849 120 c 128,-1,19
 766 40 766 40 623 40 c 2,0,-1
232 192 m 1,20,-1
 623 192 l 2,21,22
 704 192 704 192 742 227.5 c 128,-1,23
 780 263 780 263 780 337 c 0,24,25
 780 374 780 374 762.5 403.5 c 128,-1,26
 745 433 745 433 716.5 449 c 128,-1,27
 688 465 688 465 657.5 473 c 128,-1,28
 627 481 627 481 597 481 c 2,29,-1
 580 481 l 2,30,31
 566 481 566 481 566 481 c 2,32,33
 455 480 455 480 232 478 c 1,34,-1
 232 192 l 1,20,-1
232 888 m 1,35,-1
 232 630 l 1,36,37
 470 632 470 632 565 633 c 2,38,-1
 566 633 l 1,39,-1
 579 633 l 2,40,41
 654 634 654 634 688 668 c 0,42,43
 721 700 721 700 721 760 c 0,44,45
 721 813 721 813 682 850.5 c 128,-1,46
 643 888 643 888 569 888 c 2,47,-1
 232 888 l 1,35,-1
EndSplineSet
EndChar

StartChar: C
Encoding: 67 67 30
Width: 1060
GlyphClass: 1
Flags: W
LayerCount: 2
Fore
SplineSet
555 43 m 0,0,1
 460 43 460 43 374 78 c 128,-1,2
 288 113 288 113 224 178 c 0,3,4
 153 250 153 250 116 346 c 128,-1,5
 79 442 79 442 80 551 c 0,6,7
 81 637 81 637 109.5 715 c 128,-1,8
 138 793 138 793 187 852 c 128,-1,9
 236 911 236 911 298.5 954.5 c 128,-1,10
 361 998 361 998 431.5 1020.5 c 128,-1,11
 502 1043 502 1043 573 1043 c 0,12,13
 646 1043 646 1043 709.5 1029 c 128,-1,14
 773 1015 773 1015 811 996.5 c 128,-1,15
 849 978 849 978 879.5 954 c 128,-1,16
 910 930 910 930 920.5 918 c 128,-1,17
 931 906 931 906 937 896 c 0,18,19
 954 870 954 870 947.5 839 c 128,-1,20
 941 808 941 808 914 791 c 0,21,22
 889 774 889 774 858.5 780 c 128,-1,23
 828 786 828 786 810 812 c 0,24,25
 807 816 807 816 801 822.5 c 128,-1,26
 795 829 795 829 775 842 c 128,-1,27
 755 855 755 855 730.5 865 c 128,-1,28
 706 875 706 875 664 883.5 c 128,-1,29
 622 892 622 892 573 892 c 0,30,31
 512 892 512 892 451.5 866.5 c 128,-1,32
 391 841 391 841 342 797.5 c 128,-1,33
 293 754 293 754 263 689 c 128,-1,34
 233 624 233 624 232 550 c 0,35,36
 231 471 231 471 257 403 c 128,-1,37
 283 335 283 335 332 285 c 0,38,39
 421 195 421 195 555 195 c 0,40,41
 611 195 611 195 660.5 208 c 128,-1,42
 710 221 710 221 740 237 c 128,-1,43
 770 253 770 253 795.5 274.5 c 128,-1,44
 821 296 821 296 829 305 c 128,-1,45
 837 314 837 314 841 320 c 0,46,47
 859 346 859 346 889.5 352 c 128,-1,48
 920 358 920 358 946 341 c 128,-1,49
 972 324 972 324 978.5 293.5 c 128,-1,50
 985 263 985 263 968 237 c 0,51,52
 962 227 962 227 950.5 213 c 128,-1,53
 939 199 939 199 902 166 c 128,-1,54
 865 133 865 133 821.5 108 c 128,-1,55
 778 83 778 83 706.5 63 c 128,-1,56
 635 43 635 43 555 43 c 0,0,1
EndSplineSet
EndChar

StartChar: D
Encoding: 68 68 31
Width: 1058
GlyphClass: 1
Flags: W
LayerCount: 2
Fore
SplineSet
528 40 m 2,0,-1
 156 40 l 2,1,2
 124 40 124 40 102 62 c 128,-1,3
 80 84 80 84 80 116 c 2,4,-1
 80 964 l 2,5,6
 80 996 80 996 102 1018 c 128,-1,7
 124 1040 124 1040 156 1040 c 2,8,-1
 483 1040 l 2,9,10
 558 1040 558 1040 628.5 1021.5 c 128,-1,11
 699 1003 699 1003 762.5 963 c 128,-1,12
 826 923 826 923 873.5 865.5 c 128,-1,13
 921 808 921 808 948.5 724 c 128,-1,14
 976 640 976 640 976 540 c 256,15,16
 976 440 976 440 950 356 c 128,-1,17
 924 272 924 272 880.5 214.5 c 128,-1,18
 837 157 837 157 779 117 c 128,-1,19
 721 77 721 77 657.5 58.5 c 128,-1,20
 594 40 594 40 528 40 c 2,0,-1
232 192 m 1,21,-1
 528 192 l 2,22,23
 571 192 571 192 611.5 203 c 128,-1,24
 652 214 652 214 691.5 240.5 c 128,-1,25
 731 267 731 267 760 306 c 128,-1,26
 789 345 789 345 806.5 405.5 c 128,-1,27
 824 466 824 466 824 540.5 c 128,-1,28
 824 615 824 615 804.5 675 c 128,-1,29
 785 735 785 735 752 774 c 128,-1,30
 719 813 719 813 674.5 839.5 c 128,-1,31
 630 866 630 866 582.5 877 c 128,-1,32
 535 888 535 888 483 888 c 2,33,-1
 232 888 l 1,34,-1
 232 192 l 1,21,-1
EndSplineSet
EndChar

StartChar: E
Encoding: 69 69 32
Width: 997
GlyphClass: 1
Flags: W
LayerCount: 2
Fore
SplineSet
843 192 m 2,0,1
 874 192 874 192 896.5 169.5 c 128,-1,2
 919 147 919 147 919 115.5 c 128,-1,3
 919 84 919 84 896.5 62 c 128,-1,4
 874 40 874 40 843 40 c 2,5,-1
 156 40 l 2,6,7
 124 40 124 40 102 62 c 128,-1,8
 80 84 80 84 80 116 c 2,9,-1
 80 962 l 2,10,11
 80 994 80 994 102 1016 c 128,-1,12
 124 1038 124 1038 156 1038 c 2,13,-1
 843 1038 l 2,14,15
 874 1038 874 1038 896.5 1016 c 128,-1,16
 919 994 919 994 919 962.5 c 128,-1,17
 919 931 919 931 896.5 908.5 c 128,-1,18
 874 886 874 886 843 886 c 2,19,-1
 232 886 l 1,20,-1
 232 615 l 1,21,-1
 650 615 l 2,22,23
 682 615 682 615 704 593 c 128,-1,24
 726 571 726 571 726 539.5 c 128,-1,25
 726 508 726 508 704 485.5 c 128,-1,26
 682 463 682 463 650 463 c 2,27,-1
 232 463 l 1,28,-1
 232 192 l 1,29,-1
 843 192 l 2,0,1
EndSplineSet
EndChar

StartChar: F
Encoding: 70 70 33
Width: 1046
GlyphClass: 1
Flags: W
LayerCount: 2
Fore
SplineSet
890 1040 m 2,0,1
 922 1040 922 1040 944 1018 c 128,-1,2
 966 996 966 996 966 964.5 c 128,-1,3
 966 933 966 933 944 911 c 128,-1,4
 922 889 922 889 890 889 c 2,5,-1
 232 886 l 1,6,-1
 232 572 l 1,7,-1
 642 572 l 2,8,9
 673 572 673 572 695.5 549.5 c 128,-1,10
 718 527 718 527 718 495.5 c 128,-1,11
 718 464 718 464 695.5 442 c 128,-1,12
 673 420 673 420 642 420 c 2,13,-1
 232 420 l 1,14,-1
 232 115 l 2,15,16
 232 83 232 83 209.5 61 c 128,-1,17
 187 39 187 39 155.5 39 c 128,-1,18
 124 39 124 39 102 61 c 128,-1,19
 80 83 80 83 80 115 c 2,20,-1
 80 962 l 2,21,22
 80 994 80 994 102 1016 c 128,-1,23
 124 1038 124 1038 156 1038 c 2,24,-1
 890 1040 l 2,0,1
EndSplineSet
EndChar

StartChar: G
Encoding: 71 71 34
Width: 1110
GlyphClass: 1
Flags: W
LayerCount: 2
Fore
SplineSet
1030 529 m 1,0,-1
 1029 529 l 1,1,2
 1030 518 1030 518 1029 502 c 2,3,-1
 1029 115 l 2,4,5
 1029 84 1029 84 1007 62 c 128,-1,6
 985 40 985 40 953.5 40 c 128,-1,7
 922 40 922 40 900 62 c 128,-1,8
 878 84 878 84 878 115 c 2,9,-1
 878 148 l 1,10,11
 755 40 755 40 555 40 c 0,12,13
 460 40 460 40 374 75 c 128,-1,14
 288 110 288 110 224 175 c 0,15,16
 153 246 153 246 116 342.5 c 128,-1,17
 79 439 79 439 80 548 c 0,18,19
 81 655 81 655 124.5 749 c 128,-1,20
 168 843 168 843 238 905.5 c 128,-1,21
 308 968 308 968 395.5 1004 c 128,-1,22
 483 1040 483 1040 573 1040 c 0,23,24
 640 1040 640 1040 701.5 1025.5 c 128,-1,25
 763 1011 763 1011 801 993 c 128,-1,26
 839 975 839 975 872 951.5 c 128,-1,27
 905 928 905 928 915 918 c 128,-1,28
 925 908 925 908 931 901 c 0,29,30
 951 877 951 877 948.5 845.5 c 128,-1,31
 946 814 946 814 922 794 c 128,-1,32
 898 774 898 774 867 776.5 c 128,-1,33
 836 779 836 779 815 802 c 0,34,35
 811 807 811 807 804 813.5 c 128,-1,36
 797 820 797 820 775 834.5 c 128,-1,37
 753 849 753 849 727.5 860 c 128,-1,38
 702 871 702 871 660.5 880 c 128,-1,39
 619 889 619 889 573 889 c 0,40,41
 512 889 512 889 451 863.5 c 128,-1,42
 390 838 390 838 341.5 794.5 c 128,-1,43
 293 751 293 751 263 686 c 128,-1,44
 233 621 233 621 232 547 c 0,45,46
 231 468 231 468 257 400 c 128,-1,47
 283 332 283 332 332 282 c 0,48,49
 421 192 421 192 555 192 c 0,50,51
 712 192 712 192 793 277 c 0,52,53
 856 343 856 343 873 456 c 1,54,-1
 626 456 l 2,55,56
 594 456 594 456 572 478 c 128,-1,57
 550 500 550 500 550 531.5 c 128,-1,58
 550 563 550 563 572 585 c 128,-1,59
 594 607 594 607 626 607 c 2,60,-1
 954 607 l 2,61,62
 985 607 985 607 1007.5 585 c 128,-1,63
 1030 563 1030 563 1030 531 c 2,64,-1
 1030 529 l 1,0,-1
EndSplineSet
EndChar

StartChar: H
Encoding: 72 72 35
Width: 1006
GlyphClass: 1
Flags: W
LayerCount: 2
Fore
SplineSet
850 1054 m 1,0,-1
 850 1053 l 1,1,2
 882 1053 882 1053 904 1031 c 128,-1,3
 926 1009 926 1009 926 978 c 2,4,-1
 926 131 l 2,5,6
 926 100 926 100 904 77.5 c 128,-1,7
 882 55 882 55 850.5 55 c 128,-1,8
 819 55 819 55 796.5 77.5 c 128,-1,9
 774 100 774 100 774 131 c 2,10,-1
 774 468 l 1,11,-1
 232 468 l 1,12,-1
 232 143 l 2,13,14
 232 112 232 112 209.5 89.5 c 128,-1,15
 187 67 187 67 156 67 c 128,-1,16
 125 67 125 67 102.5 89.5 c 128,-1,17
 80 112 80 112 80 143 c 2,18,-1
 80 955 l 2,19,20
 80 986 80 986 102.5 1008.5 c 128,-1,21
 125 1031 125 1031 156 1031 c 128,-1,22
 187 1031 187 1031 209.5 1008.5 c 128,-1,23
 232 986 232 986 232 955 c 2,24,-1
 232 620 l 1,25,-1
 774 620 l 1,26,-1
 774 978 l 2,27,28
 774 1009 774 1009 796.5 1031.5 c 128,-1,29
 819 1054 819 1054 850 1054 c 1,0,-1
EndSplineSet
EndChar

StartChar: I
Encoding: 73 73 36
Width: 470
GlyphClass: 1
Flags: W
LayerCount: 2
Fore
SplineSet
235.5 43 m 128,-1,1
 204 43 204 43 182 65 c 128,-1,2
 160 87 160 87 160 119 c 2,3,-1
 160 968 l 2,4,5
 160 999 160 999 182 1021.5 c 128,-1,6
 204 1044 204 1044 235.5 1044 c 128,-1,7
 267 1044 267 1044 289 1021.5 c 128,-1,8
 311 999 311 999 311 968 c 2,9,-1
 311 119 l 2,10,11
 311 87 311 87 289 65 c 128,-1,0
 267 43 267 43 235.5 43 c 128,-1,1
EndSplineSet
EndChar

StartChar: J
Encoding: 74 74 37
Width: 1047
GlyphClass: 1
Flags: W
LayerCount: 2
Fore
SplineSet
530 44 m 0,0,1
 463 44 463 44 402.5 58.5 c 128,-1,2
 342 73 342 73 299 94.5 c 128,-1,3
 256 116 256 116 218.5 146 c 128,-1,4
 181 176 181 176 159 201 c 128,-1,5
 137 226 137 226 118.5 253.5 c 128,-1,6
 100 281 100 281 94.5 292 c 128,-1,7
 89 303 89 303 86 311 c 0,8,9
 74 340 74 340 86 369 c 128,-1,10
 98 398 98 398 127 410.5 c 128,-1,11
 156 423 156 423 185 411 c 128,-1,12
 214 399 214 399 226 370 c 0,13,14
 230 361 230 361 237 348.5 c 128,-1,15
 244 336 244 336 269.5 306.5 c 128,-1,16
 295 277 295 277 326.5 254.5 c 128,-1,17
 358 232 358 232 412.5 214 c 128,-1,18
 467 196 467 196 530 196 c 0,19,20
 588 196 588 196 634.5 211.5 c 128,-1,21
 681 227 681 227 710 250 c 128,-1,22
 739 273 739 273 760.5 305 c 128,-1,23
 782 337 782 337 792 363.5 c 128,-1,24
 802 390 802 390 808 419.5 c 128,-1,25
 814 449 814 449 815 461 c 128,-1,26
 816 473 816 473 816 480 c 2,27,-1
 816 970 l 2,28,29
 816 1001 816 1001 838 1023.5 c 128,-1,30
 860 1046 860 1046 891.5 1046 c 128,-1,31
 923 1046 923 1046 945.5 1023.5 c 128,-1,32
 968 1001 968 1001 968 970 c 2,33,-1
 968 480 l 2,34,35
 968 425 968 425 953.5 367.5 c 128,-1,36
 939 310 939 310 905.5 251.5 c 128,-1,37
 872 193 872 193 823 147.5 c 128,-1,38
 774 102 774 102 698 73 c 128,-1,39
 622 44 622 44 530 44 c 0,0,1
EndSplineSet
EndChar

StartChar: K
Encoding: 75 75 38
Width: 968
GlyphClass: 1
Flags: W
LayerCount: 2
Fore
SplineSet
870 165 m 2,0,1
 890 141 890 141 887 109.5 c 128,-1,2
 884 78 884 78 860 58 c 0,3,4
 839 41 839 41 812 41 c 0,5,6
 776 41 776 41 753 68 c 2,7,-1
 382 512 l 1,8,-1
 232 386 l 1,9,-1
 232 117 l 2,10,11
 232 85 232 85 209.5 63 c 128,-1,12
 187 41 187 41 156 41 c 128,-1,13
 125 41 125 41 102.5 63 c 128,-1,14
 80 85 80 85 80 117 c 2,15,-1
 80 963 l 2,16,17
 80 995 80 995 102.5 1017 c 128,-1,18
 125 1039 125 1039 156 1039 c 128,-1,19
 187 1039 187 1039 209.5 1017 c 128,-1,20
 232 995 232 995 232 963 c 2,21,-1
 232 585 l 1,22,-1
 342 677 l 1,23,-1
 342 677 l 1,24,-1
 753 1022 l 2,25,26
 777 1042 777 1042 808.5 1039 c 128,-1,27
 840 1036 840 1036 860 1012 c 128,-1,28
 880 988 880 988 877.5 956.5 c 128,-1,29
 875 925 875 925 850 905 c 2,30,-1
 498 610 l 1,31,-1
 870 165 l 2,0,1
EndSplineSet
EndChar

StartChar: L
Encoding: 76 76 39
Width: 1034
GlyphClass: 1
Flags: W
LayerCount: 2
Fore
SplineSet
880 44 m 2,0,-1
 156 44 l 2,1,2
 124 44 124 44 102 66 c 128,-1,3
 80 88 80 88 80 120 c 2,4,-1
 80 967 l 2,5,6
 80 998 80 998 102 1020.5 c 128,-1,7
 124 1043 124 1043 155.5 1043 c 128,-1,8
 187 1043 187 1043 209.5 1020.5 c 128,-1,9
 232 998 232 998 232 967 c 2,10,-1
 232 196 l 1,11,-1
 880 196 l 2,12,13
 911 196 911 196 933 173.5 c 128,-1,14
 955 151 955 151 955 119.5 c 128,-1,15
 955 88 955 88 933 66 c 128,-1,16
 911 44 911 44 880 44 c 2,0,-1
EndSplineSet
EndChar

StartChar: M
Encoding: 77 77 40
Width: 1308
GlyphClass: 1
Flags: W
LayerCount: 2
Fore
SplineSet
1153 40 m 128,-1,1
 1122 40 1122 40 1099.5 62 c 128,-1,2
 1077 84 1077 84 1077 116 c 2,3,-1
 1077 707 l 1,4,-1
 713 143 l 2,5,6
 690 109 690 109 649 109 c 128,-1,7
 608 109 608 109 585 144 c 2,8,-1
 232 692 l 1,9,-1
 232 116 l 2,10,11
 232 84 232 84 209.5 62 c 128,-1,12
 187 40 187 40 156 40 c 128,-1,13
 125 40 125 40 102.5 62 c 128,-1,14
 80 84 80 84 80 116 c 2,15,-1
 80 951 l 2,16,17
 80 976 80 976 95 996.5 c 128,-1,18
 110 1017 110 1017 134.5 1024 c 128,-1,19
 159 1031 159 1031 182.5 1022 c 128,-1,20
 206 1013 206 1013 220 992 c 2,21,-1
 649 325 l 1,22,-1
 1089 1005 l 2,23,24
 1103 1027 1103 1027 1126.5 1035.5 c 128,-1,25
 1150 1044 1150 1044 1174.5 1037 c 128,-1,26
 1199 1030 1199 1030 1214 1009.5 c 128,-1,27
 1229 989 1229 989 1229 964 c 2,28,-1
 1229 116 l 2,29,30
 1229 84 1229 84 1206.5 62 c 128,-1,0
 1184 40 1184 40 1153 40 c 128,-1,1
EndSplineSet
EndChar

StartChar: N
Encoding: 78 78 41
Width: 964
GlyphClass: 1
Flags: W
LayerCount: 2
Fore
SplineSet
156 40 m 0,0,1
 150 40 150 40 144 41 c 0,2,3
 115 46 115 46 96.5 69 c 128,-1,4
 78 92 78 92 80 121 c 0,5,6
 81 166 81 166 80 964 c 0,7,8
 80 988 80 988 94 1008 c 128,-1,9
 108 1028 108 1028 131 1036 c 128,-1,10
 154 1044 154 1044 177 1037.5 c 128,-1,11
 200 1031 200 1031 215 1012 c 2,12,-1
 732 371 l 1,13,-1
 732 964 l 2,14,15
 732 996 732 996 754.5 1018 c 128,-1,16
 777 1040 777 1040 808.5 1040 c 128,-1,17
 840 1040 840 1040 862 1018 c 128,-1,18
 884 996 884 996 884 964 c 2,19,-1
 884 156 l 2,20,21
 884 132 884 132 870 112.5 c 128,-1,22
 856 93 856 93 833.5 85 c 128,-1,23
 811 77 811 77 787.5 83.5 c 128,-1,24
 764 90 764 90 749 109 c 2,25,-1
 232 749 l 1,26,27
 233 117 233 117 231 104 c 0,28,29
 226 76 226 76 205 58 c 128,-1,30
 184 40 184 40 156 40 c 0,0,1
EndSplineSet
EndChar

StartChar: O
Encoding: 79 79 42
Width: 1080
GlyphClass: 1
Flags: W
LayerCount: 2
Fore
SplineSet
514 40 m 0,0,1
 507 40 507 40 503 40 c 0,2,3
 426 42 426 42 357.5 69.5 c 128,-1,4
 289 97 289 97 239 143.5 c 128,-1,5
 189 190 189 190 153 250 c 128,-1,6
 117 310 117 310 98.5 377.5 c 128,-1,7
 80 445 80 445 80 514 c 0,8,9
 80 749 80 749 205 889.5 c 128,-1,10
 330 1030 330 1030 540 1030 c 0,11,12
 748 1030 748 1030 874 895.5 c 128,-1,13
 1000 761 1000 761 1000 541 c 0,14,15
 1000 432 1000 432 962.5 337.5 c 128,-1,16
 925 243 925 243 855 174 c 0,17,18
 788 109 788 109 700.5 74.5 c 128,-1,19
 613 40 613 40 514 40 c 0,0,1
540 878 m 0,20,21
 481 878 481 878 433 862 c 128,-1,22
 385 846 385 846 353.5 821 c 128,-1,23
 322 796 322 796 298.5 761 c 128,-1,24
 275 726 275 726 263 693.5 c 128,-1,25
 251 661 251 661 243.5 623 c 128,-1,26
 236 585 236 585 234 561 c 128,-1,27
 232 537 232 537 232 514 c 0,28,29
 232 455 232 455 251 398.5 c 128,-1,30
 270 342 270 342 304 296 c 128,-1,31
 338 250 338 250 391 221.5 c 128,-1,32
 444 193 444 193 506 192 c 0,33,34
 653 189 653 189 748 282 c 0,35,36
 796 330 796 330 822 396.5 c 128,-1,37
 848 463 848 463 848 541 c 0,38,39
 848 697 848 697 765 787.5 c 128,-1,40
 682 878 682 878 540 878 c 0,20,21
EndSplineSet
EndChar

StartChar: P
Encoding: 80 80 43
Width: 1017
GlyphClass: 1
Flags: W
LayerCount: 2
Fore
SplineSet
155.5 40 m 128,-1,1
 124 40 124 40 102 62 c 128,-1,2
 80 84 80 84 80 116 c 2,3,-1
 80 964 l 2,4,5
 80 996 80 996 102 1018 c 128,-1,6
 124 1040 124 1040 156 1040 c 2,7,-1
 632 1040 l 2,8,9
 697 1040 697 1040 755.5 1011.5 c 128,-1,10
 814 983 814 983 853.5 937 c 128,-1,11
 893 891 893 891 916 834 c 128,-1,12
 939 777 939 777 939 721 c 0,13,14
 939 659 939 659 919 602.5 c 128,-1,15
 899 546 899 546 860.5 500 c 128,-1,16
 822 454 822 454 758 426.5 c 128,-1,17
 694 399 694 399 613 399 c 0,18,19
 454 399 454 399 232 402 c 1,20,-1
 232 116 l 2,21,22
 232 84 232 84 209.5 62 c 128,-1,0
 187 40 187 40 155.5 40 c 128,-1,1
232 554 m 1,23,24
 469 551 469 551 613 551 c 0,25,26
 656 551 656 551 689 563 c 128,-1,27
 722 575 722 575 740 592.5 c 128,-1,28
 758 610 758 610 769 634 c 128,-1,29
 780 658 780 658 783.5 678.5 c 128,-1,30
 787 699 787 699 787 721 c 0,31,32
 787 783 787 783 741.5 835.5 c 128,-1,33
 696 888 696 888 632 888 c 2,34,-1
 232 888 l 1,35,-1
 232 554 l 1,23,24
EndSplineSet
EndChar

StartChar: Q
Encoding: 81 81 44
Width: 1108
GlyphClass: 1
Flags: W
LayerCount: 2
Fore
SplineSet
999 176 m 2,0,1
 1024 156 1024 156 1028 125 c 128,-1,2
 1032 94 1032 94 1013 69 c 0,3,4
 990 40 990 40 953 40 c 0,5,6
 927 40 927 40 906 56 c 2,7,-1
 807 134 l 1,8,9
 680 40 680 40 514 40 c 0,10,11
 512 40 512 40 508.5 40 c 128,-1,12
 505 40 505 40 503 40 c 0,13,14
 426 42 426 42 357.5 69.5 c 128,-1,15
 289 97 289 97 239 143.5 c 128,-1,16
 189 190 189 190 153 250 c 128,-1,17
 117 310 117 310 98.5 377.5 c 128,-1,18
 80 445 80 445 80 514 c 0,19,20
 80 748 80 748 206.5 889 c 128,-1,21
 333 1030 333 1030 540 1030 c 0,22,23
 746 1030 746 1030 873 895 c 128,-1,24
 1000 760 1000 760 1000 541 c 0,25,26
 1000 372 1000 372 912 244 c 1,27,-1
 999 176 l 2,0,1
506 192 m 0,28,29
 603 190 603 190 680 232 c 1,30,-1
 493 378 l 2,31,32
 468 397 468 397 464.5 428.5 c 128,-1,33
 461 460 461 460 480 484.5 c 128,-1,34
 499 509 499 509 530.5 513 c 128,-1,35
 562 517 562 517 587 498 c 2,36,-1
 792 337 l 1,37,38
 848 425 848 425 848 541 c 0,39,40
 848 697 848 697 765 787.5 c 128,-1,41
 682 878 682 878 540 878 c 0,42,43
 481 878 481 878 433 862 c 128,-1,44
 385 846 385 846 353.5 821 c 128,-1,45
 322 796 322 796 298.5 761 c 128,-1,46
 275 726 275 726 263 693.5 c 128,-1,47
 251 661 251 661 243.5 623 c 128,-1,48
 236 585 236 585 234 561 c 128,-1,49
 232 537 232 537 232 514 c 0,50,51
 232 455 232 455 251 398.5 c 128,-1,52
 270 342 270 342 304 296 c 128,-1,53
 338 250 338 250 391 221.5 c 128,-1,54
 444 193 444 193 506 192 c 0,28,29
EndSplineSet
EndChar

StartChar: R
Encoding: 82 82 45
Width: 1008
GlyphClass: 1
Flags: W
LayerCount: 2
Fore
SplineSet
912 184 m 2,0,1
 932 159 932 159 928 128 c 128,-1,2
 924 97 924 97 899 78 c 0,3,4
 878 62 878 62 852 62 c 0,5,6
 815 62 815 62 792 91 c 2,7,-1
 506 461 l 1,8,9
 377 462 377 462 232 464 c 1,10,-1
 232 116 l 2,11,12
 232 84 232 84 209.5 62 c 128,-1,13
 187 40 187 40 155.5 40 c 128,-1,14
 124 40 124 40 102 62 c 128,-1,15
 80 84 80 84 80 116 c 2,16,-1
 80 957 l 2,17,18
 80 989 80 989 102 1011 c 128,-1,19
 124 1033 124 1033 156 1033 c 0,20,21
 486 1032 486 1032 617 1032 c 0,22,23
 680 1032 680 1032 733 1007.5 c 128,-1,24
 786 983 786 983 820 943.5 c 128,-1,25
 854 904 854 904 873.5 854.5 c 128,-1,26
 893 805 893 805 893 754 c 0,27,28
 893 691 893 691 873.5 636.5 c 128,-1,29
 854 582 854 582 806.5 536.5 c 128,-1,30
 759 491 759 491 688 473 c 1,31,-1
 912 184 l 2,0,1
232 881 m 1,32,-1
 232 616 l 1,33,34
 439 613 439 613 587 613 c 0,35,36
 610 613 610 613 629 615 c 128,-1,37
 648 617 648 617 669.5 626 c 128,-1,38
 691 635 691 635 706 649.5 c 128,-1,39
 721 664 721 664 731 690.5 c 128,-1,40
 741 717 741 717 741 754 c 0,41,42
 741 774 741 774 734.5 795 c 128,-1,43
 728 816 728 816 714 835.5 c 128,-1,44
 700 855 700 855 675 867.5 c 128,-1,45
 650 880 650 880 618 880 c 0,46,47
 523 880 523 880 232 881 c 1,32,-1
EndSplineSet
EndChar

StartChar: S
Encoding: 83 83 46
Width: 933
GlyphClass: 1
Flags: W
LayerCount: 2
Fore
SplineSet
466 44 m 1,0,1
 403 44 403 44 342.5 57.5 c 128,-1,2
 282 71 282 71 243 88 c 128,-1,3
 204 105 204 105 168.5 127 c 128,-1,4
 133 149 133 149 121.5 158.5 c 128,-1,5
 110 168 110 168 103 175 c 0,6,7
 81 196 81 196 80 227.5 c 128,-1,8
 79 259 79 259 101 282 c 128,-1,9
 123 305 123 305 154.5 305.5 c 128,-1,10
 186 306 186 306 209 284 c 0,11,12
 213 280 213 280 221.5 273.5 c 128,-1,13
 230 267 230 267 254.5 252 c 128,-1,14
 279 237 279 237 307 225.5 c 128,-1,15
 335 214 335 214 378 205 c 128,-1,16
 421 196 421 196 466 196 c 0,17,18
 525 196 525 196 577.5 209 c 128,-1,19
 630 222 630 222 666 250 c 128,-1,20
 702 278 702 278 702 315 c 0,21,22
 702 340 702 340 698.5 354.5 c 128,-1,23
 695 369 695 369 681.5 387.5 c 128,-1,24
 668 406 668 406 641 419.5 c 128,-1,25
 614 433 614 433 565.5 448.5 c 128,-1,26
 517 464 517 464 445 479 c 0,27,28
 92 553 92 553 92 774 c 0,29,30
 92 813 92 813 103.5 849.5 c 128,-1,31
 115 886 115 886 142 921.5 c 128,-1,32
 169 957 169 957 209 983.5 c 128,-1,33
 249 1010 249 1010 311 1026 c 128,-1,34
 373 1042 373 1042 449 1042 c 0,35,36
 503 1042 503 1042 555 1033 c 128,-1,37
 607 1024 607 1024 640.5 1013 c 128,-1,38
 674 1002 674 1002 705 987.5 c 128,-1,39
 736 973 736 973 746 966.5 c 128,-1,40
 756 960 756 960 762 956 c 0,41,42
 787 937 787 937 792 906 c 128,-1,43
 797 875 797 875 778 849.5 c 128,-1,44
 759 824 759 824 728.5 819.5 c 128,-1,45
 698 815 698 815 672 833 c 0,46,47
 668 836 668 836 661 840 c 128,-1,48
 654 844 654 844 632.5 854 c 128,-1,49
 611 864 611 864 587 871.5 c 128,-1,50
 563 879 563 879 525.5 885 c 128,-1,51
 488 891 488 891 449 891 c 0,52,53
 426 891 426 891 403.5 889 c 128,-1,54
 381 887 381 887 350.5 879.5 c 128,-1,55
 320 872 320 872 298 860.5 c 128,-1,56
 276 849 276 849 260 826.5 c 128,-1,57
 244 804 244 804 244 774 c 0,58,59
 244 676 244 676 476 628 c 0,60,61
 524 618 524 618 559.5 609 c 128,-1,62
 595 600 595 600 637 585.5 c 128,-1,63
 679 571 679 571 708.5 555 c 128,-1,64
 738 539 738 539 767 515.5 c 128,-1,65
 796 492 796 492 814 464 c 128,-1,66
 832 436 832 436 843 398.5 c 128,-1,67
 854 361 854 361 854 315 c 0,68,69
 854 195 854 195 745.5 119.5 c 128,-1,70
 637 44 637 44 466 44 c 1,71,-1
 466 44 l 1,0,1
EndSplineSet
EndChar

StartChar: T
Encoding: 84 84 47
Width: 1046
GlyphClass: 1
Flags: W
LayerCount: 2
Fore
SplineSet
890 1023 m 1,0,-1
 890 1022 l 1,1,2
 921 1022 921 1022 943.5 1000 c 128,-1,3
 966 978 966 978 966 946.5 c 128,-1,4
 966 915 966 915 943.5 893 c 128,-1,5
 921 871 921 871 890 871 c 2,6,-1
 599 871 l 1,7,-1
 599 116 l 2,8,9
 599 85 599 85 576.5 62.5 c 128,-1,10
 554 40 554 40 522.5 40 c 128,-1,11
 491 40 491 40 469 62.5 c 128,-1,12
 447 85 447 85 447 116 c 2,13,-1
 447 871 l 1,14,-1
 156 871 l 2,15,16
 124 871 124 871 102 893 c 128,-1,17
 80 915 80 915 80 946.5 c 128,-1,18
 80 978 80 978 102 1000.5 c 128,-1,19
 124 1023 124 1023 156 1023 c 2,20,-1
 890 1023 l 1,0,-1
EndSplineSet
EndChar

StartChar: U
Encoding: 85 85 48
Width: 982
GlyphClass: 1
Flags: W
LayerCount: 2
Fore
SplineSet
490 47 m 0,0,1
 402 47 402 47 331.5 72.5 c 128,-1,2
 261 98 261 98 215 140 c 128,-1,3
 169 182 169 182 138 239 c 128,-1,4
 107 296 107 296 93.5 357 c 128,-1,5
 80 418 80 418 80 483 c 2,6,-1
 80 970 l 2,7,8
 80 1001 80 1001 102 1023.5 c 128,-1,9
 124 1046 124 1046 155.5 1046 c 128,-1,10
 187 1046 187 1046 209.5 1023.5 c 128,-1,11
 232 1001 232 1001 232 970 c 2,12,-1
 232 483 l 2,13,14
 232 441 232 441 238 403.5 c 128,-1,15
 244 366 244 366 261.5 327.5 c 128,-1,16
 279 289 279 289 306.5 261.5 c 128,-1,17
 334 234 334 234 381 216.5 c 128,-1,18
 428 199 428 199 490 199 c 0,19,20
 554 199 554 199 602.5 217 c 128,-1,21
 651 235 651 235 678 261.5 c 128,-1,22
 705 288 705 288 721.5 325 c 128,-1,23
 738 362 738 362 743 393 c 128,-1,24
 748 424 748 424 748 457 c 2,25,-1
 748 970 l 2,26,27
 748 1001 748 1001 770.5 1023.5 c 128,-1,28
 793 1046 793 1046 824.5 1046 c 128,-1,29
 856 1046 856 1046 878 1023.5 c 128,-1,30
 900 1001 900 1001 900 970 c 2,31,-1
 900 457 l 2,32,33
 900 398 900 398 887 342 c 128,-1,34
 874 286 874 286 842.5 231.5 c 128,-1,35
 811 177 811 177 765 137 c 128,-1,36
 719 97 719 97 648 72 c 128,-1,37
 577 47 577 47 490 47 c 0,0,1
EndSplineSet
EndChar

StartChar: V
Encoding: 86 86 49
Width: 1004
GlyphClass: 1
Flags: W
LayerCount: 2
Fore
SplineSet
490 41 m 2,0,1
 490 41 490 41 489 41 c 0,2,3
 465 41 465 41 446 54 c 128,-1,4
 427 67 427 67 419 89 c 2,5,-1
 85 936 l 2,6,7
 74 965 74 965 86.5 993.5 c 128,-1,8
 99 1022 99 1022 128 1034 c 128,-1,9
 157 1046 157 1046 186 1033 c 128,-1,10
 215 1020 215 1020 227 991 c 2,11,-1
 492 317 l 1,12,-1
 777 988 l 2,13,14
 790 1017 790 1017 819 1028.5 c 128,-1,15
 848 1040 848 1040 877 1028 c 128,-1,16
 906 1016 906 1016 917.5 986.5 c 128,-1,17
 929 957 929 957 917 928 c 2,18,-1
 560 87 l 2,19,20
 551 66 551 66 531.5 53.5 c 128,-1,21
 512 41 512 41 490 41 c 2,0,1
EndSplineSet
EndChar

StartChar: W
Encoding: 87 87 50
Width: 1328
GlyphClass: 1
Flags: W
LayerCount: 2
Fore
SplineSet
414 40 m 1,0,1
 389 40 389 40 369 55 c 128,-1,2
 349 70 349 70 341 94 c 2,3,-1
 83 939 l 2,4,5
 74 969 74 969 89 997 c 128,-1,6
 104 1025 104 1025 134 1034 c 128,-1,7
 164 1043 164 1043 191.5 1028.5 c 128,-1,8
 219 1014 219 1014 229 984 c 2,9,-1
 414 376 l 1,10,-1
 600 985 l 2,11,12
 607 1009 607 1009 627 1023.5 c 128,-1,13
 647 1038 647 1038 672 1038 c 0,14,15
 698 1038 698 1038 718 1023 c 128,-1,16
 738 1008 738 1008 745 984 c 2,17,-1
 922 384 l 1,18,-1
 1100 984 l 2,19,20
 1109 1014 1109 1014 1136.5 1029 c 128,-1,21
 1164 1044 1164 1044 1194.5 1035 c 128,-1,22
 1225 1026 1225 1026 1240 998.5 c 128,-1,23
 1255 971 1255 971 1246 941 c 2,24,-1
 995 94 l 2,25,26
 988 70 988 70 968 55 c 128,-1,27
 948 40 948 40 922.5 40 c 128,-1,28
 897 40 897 40 877 55 c 128,-1,29
 857 70 857 70 850 94 c 2,30,-1
 671 698 l 1,31,-1
 487 94 l 2,32,33
 480 70 480 70 459.5 55 c 128,-1,34
 439 40 439 40 414 40 c 1,35,-1
 414 40 l 1,0,1
EndSplineSet
EndChar

StartChar: X
Encoding: 88 88 51
Width: 969
GlyphClass: 1
Flags: W
LayerCount: 2
Fore
SplineSet
874 153 m 2,0,1
 893 128 893 128 889 97 c 128,-1,2
 885 66 885 66 860 47 c 0,3,4
 840 31 840 31 814 31 c 0,5,6
 776 31 776 31 754 61 c 2,7,-1
 482 412 l 1,8,-1
 215 70 l 2,9,10
 192 40 192 40 156 40 c 0,11,12
 129 40 129 40 109 56 c 0,13,14
 84 76 84 76 80.5 107 c 128,-1,15
 77 138 77 138 96 162 c 2,16,-1
 387 535 l 1,17,-1
 96 912 l 2,18,19
 77 937 77 937 81 968 c 128,-1,20
 85 999 85 999 109.5 1018.5 c 128,-1,21
 134 1038 134 1038 165 1034 c 128,-1,22
 196 1030 196 1030 215 1005 c 2,23,-1
 483 658 l 1,24,-1
 754 1005 l 2,25,26
 774 1030 774 1030 805 1033.5 c 128,-1,27
 836 1037 836 1037 860.5 1018 c 128,-1,28
 885 999 885 999 889 968 c 128,-1,29
 893 937 893 937 873 912 c 2,30,-1
 579 535 l 1,31,-1
 874 153 l 2,0,1
EndSplineSet
EndChar

StartChar: Y
Encoding: 89 89 52
Width: 982
GlyphClass: 1
Flags: W
LayerCount: 2
Fore
SplineSet
874.5 1022.5 m 128,-1,1
 899 1003 899 1003 902.5 971.5 c 128,-1,2
 906 940 906 940 886 916 c 2,3,-1
 559 505 l 1,4,5
 561 497 561 497 561 488 c 2,6,-1
 561 117 l 2,7,8
 561 85 561 85 538.5 63 c 128,-1,9
 516 41 516 41 484.5 41 c 128,-1,10
 453 41 453 41 431 63 c 128,-1,11
 409 85 409 85 409 117 c 2,12,-1
 409 488 l 2,13,14
 409 496 409 496 411 505 c 1,15,-1
 96 917 l 2,16,17
 77 942 77 942 81.5 973.5 c 128,-1,18
 86 1005 86 1005 111 1024 c 128,-1,19
 136 1043 136 1043 167 1038.5 c 128,-1,20
 198 1034 198 1034 217 1009 c 2,21,-1
 486 657 l 1,22,-1
 767 1011 l 2,23,24
 787 1035 787 1035 818.5 1038.5 c 128,-1,0
 850 1042 850 1042 874.5 1022.5 c 128,-1,1
EndSplineSet
EndChar

StartChar: Z
Encoding: 90 90 53
Width: 944
GlyphClass: 1
Flags: W
LayerCount: 2
Fore
SplineSet
789 40 m 2,0,-1
 156 40 l 2,1,2
 134 40 134 40 116 51.5 c 128,-1,3
 98 63 98 63 88 82 c 128,-1,4
 78 101 78 101 80 122.5 c 128,-1,5
 82 144 82 144 95 161 c 2,6,-1
 637 887 l 1,7,-1
 156 887 l 2,8,9
 124 887 124 887 102 909 c 128,-1,10
 80 931 80 931 80 962.5 c 128,-1,11
 80 994 80 994 102 1016 c 128,-1,12
 124 1038 124 1038 156 1038 c 2,13,-1
 789 1038 l 2,14,15
 810 1038 810 1038 828.5 1027 c 128,-1,16
 847 1016 847 1016 856.5 996.5 c 128,-1,17
 866 977 866 977 864.5 955.5 c 128,-1,18
 863 934 863 934 850 917 c 2,19,-1
 308 192 l 1,20,-1
 789 192 l 2,21,22
 820 192 820 192 842.5 169.5 c 128,-1,23
 865 147 865 147 865 116 c 128,-1,24
 865 85 865 85 842.5 62.5 c 128,-1,25
 820 40 820 40 789 40 c 2,0,-1
EndSplineSet
EndChar

StartChar: k
Encoding: 107 107 54
Width: 797
GlyphClass: 1
Flags: W
LayerCount: 2
Fore
SplineSet
700 164 m 2,0,1
 720 139 720 139 716.5 108 c 128,-1,2
 713 77 713 77 688 57 c 0,3,4
 667 41 667 41 641 41 c 0,5,6
 604 41 604 41 581 70 c 2,7,-1
 323 395 l 1,8,-1
 232 317 l 1,9,-1
 232 117 l 2,10,11
 232 85 232 85 209.5 63 c 128,-1,12
 187 41 187 41 156 41 c 128,-1,13
 125 41 125 41 102.5 63 c 128,-1,14
 80 85 80 85 80 117 c 2,15,-1
 80 963 l 2,16,17
 80 995 80 995 102.5 1017 c 128,-1,18
 125 1039 125 1039 156 1039 c 128,-1,19
 187 1039 187 1039 209.5 1017 c 128,-1,20
 232 995 232 995 232 963 c 2,21,-1
 232 517 l 1,22,-1
 587 823 l 2,23,24
 611 844 611 844 642.5 841.5 c 128,-1,25
 674 839 674 839 694.5 815 c 128,-1,26
 715 791 715 791 712.5 759.5 c 128,-1,27
 710 728 710 728 686 708 c 2,28,-1
 438 494 l 1,29,-1
 700 164 l 2,0,1
EndSplineSet
EndChar

StartChar: n
Encoding: 110 110 55
Width: 894
GlyphClass: 1
Flags: W
LayerCount: 2
Fore
SplineSet
447 815 m 0,0,1
 616 815 616 815 714.5 710.5 c 128,-1,2
 813 606 813 606 813 427 c 2,3,-1
 813 116 l 2,4,5
 813 85 813 85 790.5 62.5 c 128,-1,6
 768 40 768 40 737 40 c 128,-1,7
 706 40 706 40 683.5 62.5 c 128,-1,8
 661 85 661 85 661 116 c 2,9,-1
 661 427 l 2,10,11
 661 663 661 663 447 663 c 0,12,13
 394 663 394 663 353.5 648 c 128,-1,14
 313 633 313 633 291 611 c 128,-1,15
 269 589 269 589 255 558.5 c 128,-1,16
 241 528 241 528 237 502.5 c 128,-1,17
 233 477 233 477 233 449 c 2,18,-1
 233 116 l 2,19,20
 233 85 233 85 210.5 62.5 c 128,-1,21
 188 40 188 40 157 40 c 128,-1,22
 126 40 126 40 103.5 62.5 c 128,-1,23
 81 85 81 85 81 116 c 2,24,-1
 81 739 l 2,25,26
 81 771 81 771 103.5 793 c 128,-1,27
 126 815 126 815 157 815 c 0,28,29
 184 815 184 815 204.5 798.5 c 128,-1,30
 225 782 225 782 231 756 c 1,31,32
 319 815 319 815 447 815 c 0,0,1
EndSplineSet
EndChar

StartChar: p
Encoding: 112 112 56
Width: 894
GlyphClass: 1
Flags: W
LayerCount: 2
Fore
SplineSet
812 426 m 0,0,1
 812 423 812 423 812 416 c 0,2,3
 812 408 812 408 812 406 c 0,4,5
 812 353 812 353 800.5 303 c 128,-1,6
 789 253 789 253 761 204.5 c 128,-1,7
 733 156 733 156 692 120 c 128,-1,8
 651 84 651 84 588 62 c 128,-1,9
 525 40 525 40 446 40 c 0,10,11
 321 40 321 40 232 99 c 1,12,-1
 232 -204 l 2,13,14
 232 -236 232 -236 210 -258 c 128,-1,15
 188 -280 188 -280 156.5 -280 c 128,-1,16
 125 -280 125 -280 103 -258 c 128,-1,17
 81 -236 81 -236 81 -204 c 2,18,-1
 81 739 l 2,19,20
 81 771 81 771 103 793 c 128,-1,21
 125 815 125 815 156 815 c 0,22,23
 183 815 183 815 203.5 798.5 c 128,-1,24
 224 782 224 782 230 756 c 1,25,26
 319 815 319 815 446 815 c 0,27,28
 616 815 616 815 714 710.5 c 128,-1,29
 812 606 812 606 812 426 c 0,0,1
446 192 m 0,30,31
 500 192 500 192 540 207 c 128,-1,32
 580 222 580 222 602.5 244 c 128,-1,33
 625 266 625 266 638.5 296.5 c 128,-1,34
 652 327 652 327 656.5 352.5 c 128,-1,35
 661 378 661 378 661 406 c 0,36,37
 661 409 661 409 662 416 c 0,38,39
 661 425 661 425 661 426 c 0,40,41
 661 663 661 663 446 663 c 0,42,43
 393 663 393 663 353 648 c 128,-1,44
 313 633 313 633 290.5 611 c 128,-1,45
 268 589 268 589 254.5 558.5 c 128,-1,46
 241 528 241 528 236.5 502.5 c 128,-1,47
 232 477 232 477 232 449 c 2,48,-1
 232 429 l 2,49,50
 232 192 232 192 446 192 c 0,30,31
EndSplineSet
EndChar

StartChar: mu
Encoding: 181 181 57
Width: 960
GlyphClass: 1
Flags: W
LayerCount: 2
Fore
SplineSet
772 289 m 0,0,1
 772 288 772 288 772 286.5 c 128,-1,2
 772 285 772 285 772 284 c 0,3,4
 766 265 766 265 769.5 249.5 c 128,-1,5
 773 234 773 234 777.5 224.5 c 128,-1,6
 782 215 782 215 790.5 207.5 c 128,-1,7
 799 200 799 200 803 197 c 128,-1,8
 807 194 807 194 810 193 c 0,9,10
 839 180 839 180 850 150.5 c 128,-1,11
 861 121 861 121 849 92 c 0,12,13
 839 71 839 71 820 59 c 128,-1,14
 801 47 801 47 779 47 c 0,15,16
 763 47 763 47 748 54 c 0,17,18
 706 72 706 72 671 113 c 1,19,20
 586 44 586 44 441 44 c 2,21,-1
 438 44 l 2,22,23
 357 44 357 44 292 88 c 1,24,-1
 231 -219 l 2,25,26
 225 -246 225 -246 204 -263 c 128,-1,27
 183 -280 183 -280 156 -280 c 0,28,29
 149 -280 149 -280 141 -279 c 0,30,31
 110 -272 110 -272 92.5 -246 c 128,-1,32
 75 -220 75 -220 82 -189 c 2,33,-1
 174 276 l 2,34,35
 175 287 175 287 178 295 c 2,36,-1
 260 708 l 2,37,38
 267 739 267 739 293 756.5 c 128,-1,39
 319 774 319 774 350 768 c 128,-1,40
 381 762 381 762 398.5 736 c 128,-1,41
 416 710 416 710 410 679 c 2,42,-1
 329 274 l 1,43,44
 336 256 336 256 347 241 c 128,-1,45
 358 226 358 226 383 211 c 128,-1,46
 408 196 408 196 439 196 c 2,47,-1
 441 196 l 2,48,49
 482 196 482 196 513.5 203.5 c 128,-1,50
 545 211 545 211 562 220.5 c 128,-1,51
 579 230 579 230 591 245 c 128,-1,52
 603 260 603 260 606.5 268 c 128,-1,53
 610 276 610 276 613 288 c 0,54,55
 621 314 621 314 632 350.5 c 128,-1,56
 643 387 643 387 653.5 424 c 128,-1,57
 664 461 664 461 675.5 500 c 128,-1,58
 687 539 687 539 696.5 573 c 128,-1,59
 706 607 706 607 713.5 633.5 c 128,-1,60
 721 660 721 660 725.5 676 c 128,-1,61
 730 692 730 692 730 692 c 2,62,63
 739 723 739 723 766.5 738 c 128,-1,64
 794 753 794 753 824 744.5 c 128,-1,65
 854 736 854 736 869.5 708.5 c 128,-1,66
 885 681 885 681 877 651 c 0,67,68
 822 457 822 457 772 289 c 0,0,1
EndSplineSet
EndChar

StartChar: uni03A9
Encoding: 937 937 58
Width: 1028
GlyphClass: 1
Flags: W
LayerCount: 2
Fore
SplineSet
876 40 m 2,0,-1
 672 40 l 2,1,2
 642 40 642 40 620.5 61 c 128,-1,3
 599 82 599 82 598 112 c 0,4,5
 598 127 598 127 599 148.5 c 128,-1,6
 600 170 600 170 605 211.5 c 128,-1,7
 610 253 610 253 624.5 295.5 c 128,-1,8
 639 338 639 338 662 369 c 0,9,10
 667 375 667 375 680 392 c 0,11,12
 704 424 704 424 717 442.5 c 128,-1,13
 730 461 730 461 747.5 494 c 128,-1,14
 765 527 765 527 772.5 563 c 128,-1,15
 780 599 780 599 779 640 c 0,16,17
 779 661 779 661 770 691 c 128,-1,18
 761 721 761 721 740 757 c 128,-1,19
 719 793 719 793 689 823 c 128,-1,20
 659 853 659 853 611 873 c 128,-1,21
 563 893 563 893 505.5 893 c 128,-1,22
 448 893 448 893 401.5 872.5 c 128,-1,23
 355 852 355 852 328 823 c 128,-1,24
 301 794 301 794 283 757 c 128,-1,25
 265 720 265 720 258 691.5 c 128,-1,26
 251 663 251 663 250 640 c 0,27,28
 249 599 249 599 257 563 c 128,-1,29
 265 527 265 527 282.5 494 c 128,-1,30
 300 461 300 461 313 442.5 c 128,-1,31
 326 424 326 424 350 392 c 0,32,33
 360 379 360 379 368 369 c 0,34,35
 391 338 391 338 405.5 295.5 c 128,-1,36
 420 253 420 253 425 211.5 c 128,-1,37
 430 170 430 170 431 148.5 c 128,-1,38
 432 127 432 127 432 112 c 0,39,40
 431 82 431 82 409.5 61 c 128,-1,41
 388 40 388 40 358 40 c 2,42,-1
 154 40 l 2,43,44
 123 40 123 40 101.5 61.5 c 128,-1,45
 80 83 80 83 80 113.5 c 128,-1,46
 80 144 80 144 101.5 165.5 c 128,-1,47
 123 187 123 187 154 187 c 2,48,-1
 280 187 l 1,49,50
 271 253 271 253 250 281 c 0,51,52
 242 292 242 292 234 302 c 0,53,54
 211 331 211 331 198.5 348.5 c 128,-1,55
 186 366 186 366 164.5 403 c 128,-1,56
 143 440 143 440 131.5 471.5 c 128,-1,57
 120 503 120 503 111 549 c 128,-1,58
 102 595 102 595 103 643 c 0,59,60
 105 694 105 694 120.5 747.5 c 128,-1,61
 136 801 136 801 169 854 c 128,-1,62
 202 907 202 907 247.5 948 c 128,-1,63
 293 989 293 989 360 1014.5 c 128,-1,64
 427 1040 427 1040 505 1040 c 0,65,66
 588 1040 588 1040 659.5 1012 c 128,-1,67
 731 984 731 984 778.5 940.5 c 128,-1,68
 826 897 826 897 860 842.5 c 128,-1,69
 894 788 894 788 909.5 737.5 c 128,-1,70
 925 687 925 687 926 643 c 0,71,72
 927 595 927 595 918.5 549 c 128,-1,73
 910 503 910 503 898.5 471.5 c 128,-1,74
 887 440 887 440 865.5 403 c 128,-1,75
 844 366 844 366 831.5 348.5 c 128,-1,76
 819 331 819 331 796 302 c 0,77,78
 783 286 783 286 780 281 c 0,79,80
 759 254 759 254 750 187 c 1,81,-1
 876 187 l 2,82,83
 907 187 907 187 928.5 165.5 c 128,-1,84
 950 144 950 144 950 113.5 c 128,-1,85
 950 83 950 83 928.5 61.5 c 128,-1,86
 907 40 907 40 876 40 c 2,0,-1
EndSplineSet
EndChar

StartChar: uni2010
Encoding: 8208 8208 59
Width: 870
GlyphClass: 1
Flags: W
LayerCount: 2
Fore
SplineSet
168 564 m 2,0,1
 168 609 168 609 175.5 616.5 c 128,-1,2
 183 624 183 624 228 624 c 2,3,-1
 651 624 l 2,4,5
 696 624 696 624 703.5 616.5 c 128,-1,6
 711 609 711 609 711 564 c 2,7,-1
 711 531 l 2,8,9
 711 486 711 486 703.5 478.5 c 128,-1,10
 696 471 696 471 651 471 c 2,11,-1
 228 471 l 2,12,13
 183 471 183 471 175.5 478.5 c 128,-1,14
 168 486 168 486 168 531 c 2,15,-1
 168 564 l 2,0,1
EndSplineSet
EndChar

StartChar: endash
Encoding: 8211 8211 60
Width: 870
GlyphClass: 1
Flags: W
LayerCount: 2
Fore
SplineSet
168 564 m 2,0,1
 168 609 168 609 175.5 616.5 c 128,-1,2
 183 624 183 624 228 624 c 2,3,-1
 651 624 l 2,4,5
 696 624 696 624 703.5 616.5 c 128,-1,6
 711 609 711 609 711 564 c 2,7,-1
 711 531 l 2,8,9
 711 486 711 486 703.5 478.5 c 128,-1,10
 696 471 696 471 651 471 c 2,11,-1
 228 471 l 2,12,13
 183 471 183 471 175.5 478.5 c 128,-1,14
 168 486 168 486 168 531 c 2,15,-1
 168 564 l 2,0,1
EndSplineSet
EndChar
